<svg width="308" height="114" viewBox="0 0 308 114" fill="none" xmlns="http://www.w3.org/2000/svg">
<path d="M33.375 73.0625L34.1875 72.4375L34.25 71.125C35.2917 68.5833 36.3542 66.1458 37.4375 63.8125C38.5625 61.4792 39.7292 59.0833 40.9375 56.625C41.3125 55.8333 41.6875 55.0417 42.0625 54.25C42.4792 53.4583 42.875 52.6458 43.25 51.8125C43.2083 51.6458 43.1875 51.4792 43.1875 51.3125C43.1875 51.1042 43.2292 50.875 43.3125 50.625C43.8958 49.7917 44.3542 49.0417 44.6875 48.375C45.0625 47.7083 45.4167 47.0208 45.75 46.3125C46.125 45.4792 46.5208 44.6458 46.9375 43.8125C47.3958 42.9792 47.9583 42.1667 48.625 41.375L49.0625 40.75L49.75 40.8125C49.9167 40.7292 50.0833 40.6667 50.25 40.625C50.4583 40.5417 50.7083 40.5 51 40.5L52.125 40.6875C53.5 40.0625 54.7083 39.1667 55.75 38C56.8333 36.7917 57.9167 35.3542 59 33.6875L59.75 32.625L60.75 33.25C60.9583 33.375 61.2917 33.5 61.75 33.625C62.2083 33.75 62.6875 33.8958 63.1875 34.0625C64.0625 34.2708 64.9167 34.5208 65.75 34.8125C66.5833 35.0625 67.2292 35.4167 67.6875 35.875L68 36.4375C68.0833 36.8958 68.1458 37.3125 68.1875 37.6875C68.2708 38.0625 68.3542 38.4375 68.4375 38.8125C68.6042 39.6875 68.75 40.5625 68.875 41.4375C69 42.2708 69.0833 43.2083 69.125 44.25C69.3333 45.0833 69.5208 45.9375 69.6875 46.8125C69.8958 47.6458 70.0833 48.4792 70.25 49.3125C70.4583 50.5208 70.6875 51.6875 70.9375 52.8125C71.1875 53.8958 71.5208 54.9375 71.9375 55.9375C72.3542 55.9375 72.6042 55.9583 72.6875 56C73.1875 55.7917 73.7708 55.6667 74.4375 55.625L75.25 55.5625L75.5 56.3125C75.5833 56.4375 75.6875 56.5625 75.8125 56.6875C75.9375 56.8125 76.0833 56.9375 76.25 57.0625C76.9167 57.1042 77.3958 57.25 77.6875 57.5C78.0208 57.7083 78.2917 57.9167 78.5 58.125C78.5833 58.2083 78.6875 58.3125 78.8125 58.4375C78.9375 58.5208 79.0417 58.5833 79.125 58.625L80.25 59.0625L79.625 60.25C79.1667 61.125 78.4583 61.9792 77.5 62.8125C76.5833 63.6458 75.5417 64.3333 74.375 64.875C74.4583 65.1667 74.5 65.4375 74.5 65.6875C74.5417 65.9375 74.6042 66.2292 74.6875 66.5625C74.8542 67.3958 74.9792 68.2708 75.0625 69.1875C75.1875 70.0625 75.1875 70.9792 75.0625 71.9375C74.6458 73.0208 74.1458 74 73.5625 74.875C73.0208 75.7083 72.3542 76.4792 71.5625 77.1875C70.8125 77.8542 69.9583 78.4167 69 78.875C68.0417 79.2917 67.0417 79.5208 66 79.5625C65.4167 79.4375 64.9792 79.2917 64.6875 79.125C64.4375 78.9583 64.2083 78.7917 64 78.625C63.6667 78.375 63.3958 78.2083 63.1875 78.125L62.375 77.75L62.625 76.8125C62.75 76.4792 62.7292 76.1875 62.5625 75.9375C62.4375 75.6875 62.1458 75.3542 61.6875 74.9375C61.5208 74.8125 61.375 74.6875 61.25 74.5625C61.125 74.3958 60.9792 74.2292 60.8125 74.0625L59.5625 72.625L61.625 72.0625C62.875 71.7292 63.7083 71.3125 64.125 70.8125C64.5417 70.2708 64.7083 69.3333 64.625 68C63.5833 67.7917 62.7292 67.7708 62.0625 67.9375C61.3958 68.0625 60.7292 68.2083 60.0625 68.375C59.1042 68.625 58.1667 68.8542 57.25 69.0625C56.3333 69.2292 55.3333 69.3125 54.25 69.3125C53.5417 69.3125 52.7917 69.25 52 69.125L51.3125 69.0625L51.125 68.375C51.125 68.2917 51.0625 68.2083 50.9375 68.125C50.8542 68 50.7708 67.8958 50.6875 67.8125C50.4792 67.5625 50.2292 67.2292 49.9375 66.8125C49.6458 66.3958 49.5833 65.875 49.75 65.25C49.4583 64.7917 49.2917 64.3125 49.25 63.8125C49.0833 64.1458 48.9375 64.4792 48.8125 64.8125C48.7292 65.1042 48.6458 65.3958 48.5625 65.6875L48.3125 66.5L47.5 66.625C47.4167 66.7083 47.3333 66.8333 47.25 67C47.2083 67.1667 47.2083 67.2917 47.25 67.375L47.5 68.0625L46.875 68.625C46.7917 68.75 46.6875 68.8542 46.5625 68.9375C46.4375 69.0208 46.3333 69.1042 46.25 69.1875C46.1667 69.6458 46.0417 70.0833 45.875 70.5C45.75 70.9167 45.6042 71.3333 45.4375 71.75C45.2292 72.4167 45.0208 73.0625 44.8125 73.6875C44.6458 74.3125 44.5625 74.9375 44.5625 75.5625L44.3125 76.375C44.1042 76.7083 43.8333 76.9583 43.5 77.125C43.2083 77.2917 42.9167 77.4375 42.625 77.5625C42.2083 77.7292 41.9167 77.8958 41.75 78.0625L41.5625 78.875L40.625 79C40.0833 79.125 39.6875 79.2083 39.4375 79.25C39.2292 79.2917 38.9792 79.3125 38.6875 79.3125L37.875 79.25C37.375 78.75 36.9583 78.375 36.625 78.125C36.3333 77.8333 35.9792 77.5833 35.5625 77.375L35.1875 76.875C35.0208 76.5417 34.9167 76.25 34.875 76C34.8333 75.7083 34.7708 75.4167 34.6875 75.125C34.6042 74.5833 34.4792 74.2083 34.3125 74L33.375 73.0625ZM53.3125 56.8125C52.7292 57.6458 52.1667 58.5208 51.625 59.4375C51.9167 59.3958 52.1875 59.375 52.4375 59.375C52.7292 59.375 53.0208 59.3542 53.3125 59.3125C54.7708 59.2292 56.125 59.125 57.375 59C58.625 58.875 59.9792 58.6667 61.4375 58.375C61.1042 56.8333 60.7292 55.2708 60.3125 53.6875C59.9375 52.0625 59.5208 50.4375 59.0625 48.8125L58.75 49.4375C57.7083 50.5625 56.7083 51.7708 55.75 53.0625C54.7917 54.3542 54 55.5833 53.375 56.75L53.3125 56.8125ZM96.4375 78.3125C95.2708 78.6875 94 79.0625 92.625 79.4375C91.25 79.8125 89.875 80 88.5 80C86.4167 80 84.7708 79.4792 83.5625 78.4375C83.3542 77.9792 83.1667 77.6667 83 77.5C82.875 77.3333 82.75 77.1667 82.625 77C82.5417 76.7917 82.4792 76.5208 82.4375 76.1875C81.9375 75.6042 81.5417 74.9375 81.25 74.1875C80.9583 73.3958 80.75 72.6042 80.625 71.8125C80.5417 70.9792 80.5208 70.1458 80.5625 69.3125C80.6458 68.4792 80.7917 67.6875 81 66.9375C81.0833 66.7708 81.125 66.6042 81.125 66.4375C81.1667 66.2708 81.2083 66.0833 81.25 65.875C81.4167 65.2083 81.5833 64.5625 81.75 63.9375C81.9583 63.3125 82.2292 62.7708 82.5625 62.3125C82.3958 61.9375 82.3958 61.5208 82.5625 61.0625C82.7292 60.6042 82.9167 60.1875 83.125 59.8125C83.7083 58.2292 84.1875 56.8958 84.5625 55.8125C84.9792 54.6875 85.3958 53.5833 85.8125 52.5C86.5208 50.625 87.1875 48.7708 87.8125 46.9375C88.4375 45.1042 89 43.125 89.5 41C89.8333 40.7917 90.0833 40.6458 90.25 40.5625C90.5 40.4792 90.7083 40.4167 90.875 40.375C91.625 40.75 92.5 41.125 93.5 41.5C94.5 41.8333 95.3333 42 96 42C96.3333 42.2083 96.5417 42.375 96.625 42.5C96.7083 42.5833 96.7917 42.6667 96.875 42.75C97.3333 43.2917 97.7292 43.8542 98.0625 44.4375C98.3958 44.9792 98.5 45.7083 98.375 46.625C98.125 47 97.9375 47.1875 97.8125 47.1875C97.6042 48.0208 97.375 48.7292 97.125 49.3125C96.9167 49.8958 96.6875 50.4792 96.4375 51.0625C96.1458 51.6875 95.875 52.3125 95.625 52.9375C95.375 53.5625 95.1667 54.3333 95 55.25C94.8333 55.4583 94.7083 55.6458 94.625 55.8125C94.5833 55.9792 94.5208 56.1667 94.4375 56.375C94.3542 56.5833 94.25 56.8125 94.125 57.0625C94.0417 57.2708 93.8958 57.4583 93.6875 57.625C93.5625 58.7083 93.3542 59.5833 93.0625 60.25C92.8125 60.9167 92.5417 61.5833 92.25 62.25C91.75 63.4583 91.2917 64.6667 90.875 65.875C90.5 67.0833 90.2708 68.4583 90.1875 70C90.3958 69.9167 90.5833 69.875 90.75 69.875C90.9583 69.875 91.1458 69.875 91.3125 69.875C91.6875 69.875 92.125 69.9375 92.625 70.0625C93.875 69.3958 95.2292 69 96.6875 68.875C98.1875 68.75 99.6667 68.6667 101.125 68.625C101.708 68.625 102.292 68.625 102.875 68.625C103.458 68.625 104 68.5833 104.5 68.5C104.875 68.7083 105.104 68.8333 105.188 68.875C105.312 68.875 105.479 68.875 105.688 68.875C105.979 68.875 106.229 68.8958 106.438 68.9375C106.938 69.3958 107.417 69.7292 107.875 69.9375C108.333 70.1458 108.812 70.3333 109.312 70.5C109.771 70.6667 110.208 70.8542 110.625 71.0625C111.083 71.2292 111.521 71.4792 111.938 71.8125L112.375 74.5C112.667 74.875 112.792 75.125 112.75 75.25C112.75 75.5833 112.667 75.8333 112.5 76L112.625 76.6875C112 76.8125 111.562 76.9583 111.312 77.125C111.104 77.2917 110.896 77.4792 110.688 77.6875C110.354 77.7292 110.104 77.75 109.938 77.75C109.812 77.75 109.688 77.75 109.562 77.75C108.979 77.75 108.271 77.8542 107.438 78.0625C106.312 77.6875 105.146 77.5 103.938 77.5C103.479 77.5 103 77.5208 102.5 77.5625C102 77.6042 101.5 77.6458 101 77.6875C100.5 77.7708 99.9792 77.8333 99.4375 77.875C98.9375 77.9167 98.4167 77.9375 97.875 77.9375L96.4375 78.3125ZM144.5 48.9375C143.458 48.9375 142.333 49.0208 141.125 49.1875C139.917 49.3125 138.729 49.4583 137.562 49.625C136.729 49.75 135.917 49.8542 135.125 49.9375C134.375 50.0208 133.688 50.0833 133.062 50.125C132.771 51.0417 132.479 51.8542 132.188 52.5625C131.896 53.2708 131.583 53.9583 131.25 54.625C130.917 55.3333 130.604 56.0625 130.312 56.8125C130.062 57.5208 129.812 58.2917 129.562 59.125C129.146 59.7917 128.792 60.4167 128.5 61C128.25 61.5417 128.042 62.1667 127.875 62.875C127.375 63.5 127 64.1667 126.75 64.875C126.5 65.5417 126.312 66.125 126.188 66.625L125.938 67.375C125.688 67.625 125.542 67.8333 125.5 68C125.458 68.125 125.354 68.25 125.188 68.375C125.146 68.8333 125 69.2917 124.75 69.75C124.667 69.9583 124.604 70.1667 124.562 70.375C124.521 70.5417 124.5 70.6667 124.5 70.75C124.5 71.1667 124.396 71.4375 124.188 71.5625C124.229 71.7708 124.229 72 124.188 72.25C124.146 72.4583 124.104 72.6667 124.062 72.875C123.938 73.375 123.896 73.7708 123.938 74.0625C124.062 74.2292 124.167 74.375 124.25 74.5C124.375 74.625 124.458 74.7917 124.5 75C124.75 75.1667 124.938 75.2708 125.062 75.3125C125.229 75.4375 125.479 75.5833 125.812 75.75L126.375 76.375C126.583 77.5833 126.396 78.5417 125.812 79.25C125.188 80.0417 124.125 80.4375 122.625 80.4375H121.875C121.667 80.2292 121.542 80.0625 121.5 79.9375C121.167 79.8125 120.896 79.7083 120.688 79.625C120.479 79.5417 120.292 79.375 120.125 79.125C119.583 78.875 119.146 78.6667 118.812 78.5L118.25 78.1875C118.25 77.7292 118.25 77.4792 118.25 77.4375C117.958 77.0625 117.729 76.6458 117.562 76.1875C117.438 75.7292 117.333 75.2708 117.25 74.8125C117.167 74.4375 117.062 74.0833 116.938 73.75C116.854 73.4167 116.729 73.125 116.562 72.875C116.479 70.4583 116.708 68.4167 117.25 66.75C117.792 65.0833 118.354 63.4792 118.938 61.9375C119.271 61.1042 119.604 60.2708 119.938 59.4375C120.271 58.5625 120.562 57.6667 120.812 56.75L121.375 56.125C121.667 55.4583 121.896 54.9167 122.062 54.5C122.271 54.0417 122.479 53.5833 122.688 53.125C122.812 52.8333 122.917 52.5625 123 52.3125C123.125 52.0208 123.229 51.7708 123.312 51.5625C123.062 51.5625 122.833 51.5833 122.625 51.625C122.417 51.625 122.208 51.6458 122 51.6875C121.75 51.7292 121.521 51.7708 121.312 51.8125C121.104 51.8125 120.896 51.8125 120.688 51.8125C120.396 51.8125 120.188 51.7917 120.062 51.75C119.604 51.9583 119.104 52.0625 118.562 52.0625H117.938C117.812 52.0625 117.688 52.0625 117.562 52.0625C117.479 52.0208 117.396 52 117.312 52C116.896 52 116.562 52.0625 116.312 52.1875C115.812 52.1875 115.333 52.1875 114.875 52.1875H114.25C114.167 52.1875 114.062 52.2083 113.938 52.25C113.812 52.25 113.708 52.25 113.625 52.25C113.333 52.25 113.021 52.2292 112.688 52.1875C112.354 52.1042 112 51.9583 111.625 51.75C111.125 51.0833 110.792 50.7292 110.625 50.6875L110.062 49.9375C110.021 49.6875 109.958 49.4583 109.875 49.25C109.792 49 109.708 48.7292 109.625 48.4375C109.458 48.0208 109.292 47.5833 109.125 47.125C109 46.625 108.938 46.0417 108.938 45.375C108.979 45.0417 109.062 44.7917 109.188 44.625C109.312 44.4583 109.417 44.3125 109.5 44.1875L109.688 43.25L110.5 43.3125H112.25C113.583 43.3125 114.938 43.2708 116.312 43.1875C117.688 43.0625 119.104 42.9375 120.562 42.8125C121.396 42.7292 122.229 42.6458 123.062 42.5625C123.938 42.4792 124.833 42.3958 125.75 42.3125C125.917 41.9375 126.083 41.5833 126.25 41.25L126.875 40.9375C127.625 40.8958 128.146 41 128.438 41.25C128.771 41.4583 129.042 41.6667 129.25 41.875C130.167 41.7917 131.083 41.7083 132 41.625C132.958 41.5 133.917 41.3542 134.875 41.1875C136.292 40.9792 137.708 40.7917 139.125 40.625C140.583 40.4583 141.979 40.375 143.312 40.375C143.896 40.375 144.458 40.3958 145 40.4375C145.542 40.4792 146.042 40.5417 146.5 40.625L147.125 41.0625C147.25 41.3125 147.417 41.5417 147.625 41.75C147.875 41.9583 148.125 42.1667 148.375 42.375C148.875 42.8333 149.375 43.375 149.875 44C150.375 44.625 150.562 45.5417 150.438 46.75C150.104 47.25 149.854 47.5417 149.688 47.625L149.125 48.375L148.5 48.3125C148.25 48.3125 148.021 48.3542 147.812 48.4375C147.604 48.4792 147.396 48.5417 147.188 48.625C147.021 48.7083 146.854 48.7917 146.688 48.875C146.521 48.9167 146.333 48.9583 146.125 49C145.75 49 145.438 49 145.188 49C144.979 48.9583 144.75 48.9375 144.5 48.9375ZM174.5 43.8125C174.542 44.1042 174.542 44.3333 174.5 44.5C174.5 44.625 174.479 44.75 174.438 44.875C174.438 45 174.438 45.1458 174.438 45.3125C174.438 45.4375 174.479 45.6458 174.562 45.9375C173.688 47.3542 172.667 48.3333 171.5 48.875C170.375 49.375 169.146 49.75 167.812 50C166.479 50.2083 165.104 50.4375 163.688 50.6875C162.312 50.9375 160.938 51.4792 159.562 52.3125C159.021 52.1042 158.521 52.1042 158.062 52.3125C157.646 52.5208 157.021 52.5833 156.188 52.5C155.938 52.75 155.625 52.9375 155.25 53.0625C154.875 53.1458 154.5 53.25 154.125 53.375C154.292 53.75 154.354 54.1458 154.312 54.5625C154.312 54.9375 154.375 55.25 154.5 55.5C155.958 55.625 157.562 55.6042 159.312 55.4375C161.104 55.2708 162.854 55.1667 164.562 55.125C164.604 55.3333 164.583 55.4792 164.5 55.5625C164.417 55.6042 164.396 55.7083 164.438 55.875C164.729 56.0833 165.021 56.3542 165.312 56.6875C165.604 56.9792 165.896 57.2708 166.188 57.5625C166.479 57.8542 166.771 58.1042 167.062 58.3125C167.396 58.4792 167.771 58.5417 168.188 58.5C168.354 58.8333 168.458 59.2083 168.5 59.625C168.583 60 168.542 60.3958 168.375 60.8125C167.708 61.2708 167.042 61.75 166.375 62.25C165.708 62.7083 165 63.125 164.25 63.5C163.542 63.875 162.771 64.1875 161.938 64.4375C161.146 64.6458 160.25 64.7292 159.25 64.6875C159.042 64.6875 158.875 64.6875 158.75 64.6875C158.667 64.6875 158.542 64.625 158.375 64.5C158.042 64.7083 157.562 64.7708 156.938 64.6875C156.354 64.6042 155.896 64.6667 155.562 64.875C155.104 64.6667 154.542 64.5833 153.875 64.625C153.25 64.625 152.688 64.5417 152.188 64.375C151.521 65.25 150.917 66.1875 150.375 67.1875C149.833 68.1875 149.354 69.25 148.938 70.375C150.354 70.5833 151.521 70.6667 152.438 70.625C153.396 70.5833 154.292 70.5208 155.125 70.4375C155.958 70.3125 156.812 70.2083 157.688 70.125C158.562 70 159.667 69.9583 161 70C161.833 69.5417 162.812 69.25 163.938 69.125C165.104 68.9583 166.167 68.7083 167.125 68.375C167.458 68.5 167.75 68.7292 168 69.0625C168.25 69.3542 168.479 69.6458 168.688 69.9375C168.938 70.1875 169.188 70.4167 169.438 70.625C169.688 70.8333 170 70.9167 170.375 70.875C170.542 71.0417 170.646 71.25 170.688 71.5C170.771 71.7083 170.833 71.9167 170.875 72.125C170.917 72.3333 170.979 72.5208 171.062 72.6875C171.188 72.8125 171.375 72.8542 171.625 72.8125C171 74.1875 170.271 75.25 169.438 76C168.646 76.7083 167.729 77.25 166.688 77.625C165.646 78 164.479 78.2917 163.188 78.5C161.938 78.7083 160.542 78.9583 159 79.25C158.625 79.3333 158.312 79.3125 158.062 79.1875C157.812 79.1042 157.521 79.0625 157.188 79.0625C156.229 79.2708 155.083 79.4583 153.75 79.625C152.417 79.7917 151.062 79.8542 149.688 79.8125C148.312 79.7708 147 79.5833 145.75 79.25C144.5 78.9583 143.479 78.4167 142.688 77.625C142.354 77.3333 142.125 77 142 76.625C141.917 76.2083 141.646 75.8958 141.188 75.6875C141.146 75.1458 141.062 74.5417 140.938 73.875C140.812 73.2083 140.688 72.5208 140.562 71.8125C140.438 71.0625 140.333 70.3333 140.25 69.625C140.208 68.9167 140.25 68.2708 140.375 67.6875C140.5 67.0625 140.75 66.5 141.125 66C141.542 65.5 141.688 64.9583 141.562 64.375C141.771 64.3333 141.896 64.2292 141.938 64.0625C141.979 63.8542 142.146 63.7708 142.438 63.8125C142.688 63.0625 142.958 62.3542 143.25 61.6875C143.542 61.0208 143.833 60.375 144.125 59.75C144.458 59.125 144.771 58.5 145.062 57.875C145.396 57.2083 145.708 56.4792 146 55.6875C145.417 55.1458 144.979 54.5625 144.688 53.9375C144.438 53.2708 144.25 52.625 144.125 52C144 51.3333 143.896 50.6667 143.812 50C143.729 49.2917 143.583 48.5833 143.375 47.875C143.792 47.25 144.292 46.75 144.875 46.375C145.5 45.9583 146.167 45.625 146.875 45.375C147.583 45.125 148.354 44.9167 149.188 44.75C150.021 44.5833 150.896 44.3958 151.812 44.1875C153.479 43.6458 154.958 43.2292 156.25 42.9375C157.583 42.6458 158.875 42.4167 160.125 42.25C161.417 42.0417 162.75 41.8542 164.125 41.6875C165.5 41.5208 167.062 41.2708 168.812 40.9375C169.188 41.3125 169.542 41.5 169.875 41.5C170.042 41.125 170.229 41.0208 170.438 41.1875C170.688 41.3125 170.792 41.1875 170.75 40.8125C171.167 41.5208 171.688 42.125 172.312 42.625C172.979 43.0833 173.708 43.4792 174.5 43.8125ZM182.438 72.5C181.979 74.1667 181.562 75.4375 181.188 76.3125C180.854 77.1458 180.333 78.0208 179.625 78.9375C179.083 78.8542 178.708 78.9167 178.5 79.125C178.292 79.3333 178.062 79.5208 177.812 79.6875C177.438 79.7708 177.167 79.7708 177 79.6875C176.833 79.6042 176.688 79.5 176.562 79.375C176.438 79.2917 176.271 79.1875 176.062 79.0625C175.896 78.9792 175.625 78.9375 175.25 78.9375C175.167 78.6042 175.062 78.2917 174.938 78C174.854 77.7083 174.583 77.6042 174.125 77.6875C174.208 77.3542 174.229 77.0833 174.188 76.875C174.146 76.625 174.083 76.4167 174 76.25C173.958 76.0417 173.917 75.8542 173.875 75.6875C173.833 75.4792 173.854 75.2292 173.938 74.9375C173.729 74.9375 173.562 74.7917 173.438 74.5C173.312 74.2083 173.167 73.9167 173 73.625C173.125 72.875 173.25 72.1667 173.375 71.5C173.5 70.8333 173.646 70.2083 173.812 69.625C174.021 69.0417 174.188 68.4583 174.312 67.875C174.438 67.2917 174.375 66.6875 174.125 66.0625C174.292 66.1875 174.417 66.1667 174.5 66C174.583 65.7917 174.646 65.5417 174.688 65.25C174.729 64.9167 174.75 64.6042 174.75 64.3125C174.75 63.9792 174.729 63.7083 174.688 63.5C175.104 62.4167 175.438 61.3125 175.688 60.1875C175.979 59.0208 176.229 57.875 176.438 56.75C176.688 55.625 176.938 54.5208 177.188 53.4375C177.438 52.3542 177.771 51.3542 178.188 50.4375C178.646 50.3542 179.146 50.4167 179.688 50.625C180.271 50.7917 180.625 51.0208 180.75 51.3125C181.833 50.4792 182.792 49.4792 183.625 48.3125C184.458 47.1042 185.312 45.9375 186.188 44.8125C187.062 43.6875 188.021 42.6875 189.062 41.8125C190.146 40.9375 191.5 40.4167 193.125 40.25C193.958 40.875 194.875 41.5208 195.875 42.1875C196.917 42.8125 197.771 43.6458 198.438 44.6875C198.771 44.8542 199.042 45.0417 199.25 45.25C199.5 45.4167 199.792 45.6042 200.125 45.8125V46.5625C200.625 47.0208 201.021 47.5625 201.312 48.1875C201.646 48.7708 201.938 49.4167 202.188 50.125C202.438 50.7917 202.688 51.4792 202.938 52.1875C203.188 52.8542 203.479 53.5 203.812 54.125C203.729 54.3333 203.688 54.5208 203.688 54.6875C203.688 54.8125 203.708 54.9583 203.75 55.125C203.833 55.2917 203.896 55.4583 203.938 55.625C203.979 55.7917 203.979 56.0208 203.938 56.3125C203.812 58.1458 203.208 59.625 202.125 60.75C201.083 61.875 199.812 62.8125 198.312 63.5625C196.812 64.2708 195.208 64.875 193.5 65.375C191.792 65.875 190.25 66.4167 188.875 67C188.875 67.1667 188.938 67.25 189.062 67.25C189.229 67.25 189.292 67.3542 189.25 67.5625C190.25 68.1875 191.042 68.6875 191.625 69.0625C192.208 69.4375 192.75 69.75 193.25 70C193.792 70.25 194.354 70.4792 194.938 70.6875C195.562 70.8542 196.417 71.0625 197.5 71.3125C198.583 71.5625 199.417 71.7708 200 71.9375C200.625 72.0625 201.188 72.1875 201.688 72.3125C202.188 72.3958 202.688 72.4792 203.188 72.5625C203.729 72.6042 204.479 72.6667 205.438 72.75C205.812 73.125 206.125 73.5833 206.375 74.125C206.667 74.625 206.854 75.1458 206.938 75.6875C207.021 76.1875 207.042 76.6875 207 77.1875C206.958 77.6458 206.812 78.0208 206.562 78.3125C206.604 78.4375 206.688 78.5 206.812 78.5C206.979 78.4583 207.146 78.4583 207.312 78.5C207.062 78.6667 206.854 78.875 206.688 79.125C206.521 79.375 206.354 79.625 206.188 79.875C206.021 80.125 205.833 80.3333 205.625 80.5C205.417 80.7083 205.125 80.8333 204.75 80.875C203.458 81.375 201.833 81.3958 199.875 80.9375C197.917 80.5208 195.438 79.7292 192.438 78.5625C190.938 77.9792 189.708 77.4792 188.75 77.0625C187.833 76.6042 187.021 76.1667 186.312 75.75C185.646 75.2917 185.021 74.8125 184.438 74.3125C183.896 73.8125 183.229 73.2083 182.438 72.5ZM191.375 51.0625C190.917 51.7292 190.396 52.3333 189.812 52.875C189.271 53.4167 188.729 53.9792 188.188 54.5625C187.688 55.1042 187.229 55.7292 186.812 56.4375C186.396 57.1042 186.104 57.8958 185.938 58.8125C187.396 58.6458 188.917 58.25 190.5 57.625C192.083 56.9583 193.583 56.3333 195 55.75C194.833 54.4583 194.375 53.4167 193.625 52.625C192.917 51.8333 192.167 51.3125 191.375 51.0625ZM240.062 73.75C239.812 74.4583 239.438 75.1875 238.938 75.9375C238.479 76.6458 237.917 77.2917 237.25 77.875C236.625 78.4167 235.917 78.875 235.125 79.25C234.333 79.625 233.5 79.8333 232.625 79.875C232.083 79.75 231.708 79.6042 231.5 79.4375C231.333 79.3125 231.146 79.1875 230.938 79.0625C230.812 78.9792 230.688 78.9167 230.562 78.875C230.479 78.7917 230.396 78.7292 230.312 78.6875L229.562 78.375L229.812 77.5625C229.896 77.2292 229.875 76.9792 229.75 76.8125C229.625 76.6042 229.375 76.3333 229 76C228.875 75.875 228.75 75.75 228.625 75.625C228.5 75.5 228.396 75.375 228.312 75.25L227.25 74.0625L228.938 73.625C229.979 73.3333 230.667 72.9583 231 72.5C231.375 72.0417 231.521 71.2708 231.438 70.1875C230.604 70.0208 229.896 70 229.312 70.125C228.771 70.25 228.208 70.3958 227.625 70.5625C226.875 70.7708 226.104 70.9583 225.312 71.125C224.562 71.25 223.729 71.3125 222.812 71.3125C222.479 71.3125 222.167 71.3125 221.875 71.3125C221.583 71.2708 221.271 71.2292 220.938 71.1875L220.312 71.0625C220.229 70.6042 220.146 70.3542 220.062 70.3125C219.979 70.2292 219.896 70.1458 219.812 70.0625C219.604 69.8542 219.375 69.5833 219.125 69.25C218.917 68.875 218.875 68.4167 219 67.875C218.792 67.5 218.667 67.125 218.625 66.75C218.375 67.25 218.188 67.7708 218.062 68.3125L217.812 68.9375L217.188 69.0625C217.104 69.1042 217.042 69.2083 217 69.375C216.958 69.5 216.938 69.6042 216.938 69.6875L216.625 70.75C216.542 70.8333 216.458 70.9167 216.375 71C216.292 71.0417 216.208 71.1042 216.125 71.1875C216.042 71.5625 215.938 71.9375 215.812 72.3125C215.688 72.6875 215.562 73.0417 215.438 73.375C215.229 73.9167 215.042 74.4583 214.875 75C214.75 75.5 214.708 76 214.75 76.5L214.5 77.1875C214.292 77.4375 214.062 77.6458 213.812 77.8125C213.562 77.9375 213.312 78.0625 213.062 78.1875C212.979 78.2708 212.854 78.3542 212.688 78.4375C212.562 78.4792 212.458 78.5208 212.375 78.5625L212.188 79.25L211.438 79.375C210.979 79.4583 210.646 79.5208 210.438 79.5625C210.271 79.6042 210.062 79.625 209.812 79.625L209.188 79.5625C208.729 79.1875 208.375 78.8958 208.125 78.6875C207.875 78.4375 207.583 78.2083 207.25 78C206.875 77.5 206.667 77.125 206.625 76.875C206.583 76.625 206.542 76.3958 206.5 76.1875C206.417 75.9375 206.375 75.7292 206.375 75.5625C206.333 75.3958 206.271 75.2708 206.188 75.1875L205.375 74.4375L206.062 73.875L206.125 72.8125C206.958 70.6875 207.833 68.6458 208.75 66.6875C209.708 64.7292 210.688 62.7292 211.688 60.6875C212.021 60.0208 212.333 59.3542 212.625 58.6875C212.958 58.0208 213.292 57.3542 213.625 56.6875C213.583 56.5625 213.562 56.4167 213.562 56.25C213.562 56.0833 213.604 55.8958 213.688 55.6875C214.146 54.9792 214.521 54.3542 214.812 53.8125C215.104 53.2292 215.396 52.6458 215.688 52.0625C216.021 51.3542 216.354 50.6667 216.688 50C217.062 49.3333 217.521 48.6458 218.062 47.9375L219.062 47.5C219.188 47.4583 219.333 47.4167 219.5 47.375C219.667 47.2917 219.854 47.25 220.062 47.25L221 47.375C222.167 46.8333 223.188 46.0833 224.062 45.125C224.938 44.125 225.833 42.9375 226.75 41.5625L227.375 40.6875L228.188 41.1875C228.396 41.3125 228.688 41.4375 229.062 41.5625C229.438 41.6458 229.833 41.75 230.25 41.875C231 42.0417 231.708 42.2292 232.375 42.4375C233.042 42.6458 233.583 42.9583 234 43.375C234.25 44.0417 234.396 44.5417 234.438 44.875C234.479 45.2083 234.542 45.5417 234.625 45.875C234.75 46.5833 234.854 47.2917 234.938 48C235.062 48.7083 235.146 49.5 235.188 50.375C235.396 51.0833 235.562 51.7917 235.688 52.5C235.854 53.1667 236 53.8542 236.125 54.5625C236.333 55.5625 236.542 56.5417 236.75 57.5C236.958 58.4167 237.229 59.2917 237.562 60.125C237.896 60.125 238.104 60.1458 238.188 60.1875C238.396 60.1042 238.604 60.0417 238.812 60C239.062 59.9583 239.333 59.9167 239.625 59.875L240.312 59.8125L240.562 60.4375C240.604 60.6458 240.812 60.8542 241.188 61.0625C241.729 61.1042 242.125 61.2292 242.375 61.4375C242.625 61.6042 242.854 61.7917 243.062 62C243.229 62.1667 243.396 62.2917 243.562 62.375L244.5 62.75L244 63.6875C243.583 64.4375 242.979 65.1667 242.188 65.875C241.438 66.5417 240.583 67.1042 239.625 67.5625C239.667 67.8125 239.688 68.0625 239.688 68.3125C239.729 68.5208 239.792 68.75 239.875 69C240 69.7083 240.104 70.4375 240.188 71.1875C240.271 71.9375 240.271 72.7083 240.188 73.5L240.062 73.75ZM222 62.9375C223.25 62.8542 224.375 62.7708 225.375 62.6875C226.417 62.5625 227.562 62.375 228.812 62.125C228.521 60.875 228.208 59.5833 227.875 58.25C227.542 56.875 227.188 55.5208 226.812 54.1875L226.438 54.8125C225.604 55.6875 224.792 56.6667 224 57.75C223.25 58.8333 222.604 59.8542 222.062 60.8125C221.812 61.1875 221.562 61.5625 221.312 61.9375C221.062 62.3125 220.833 62.6875 220.625 63.0625C220.875 63.0208 221.104 63 221.312 63C221.562 63 221.792 62.9792 222 62.9375ZM254.25 72.5C253.792 74.1667 253.375 75.4375 253 76.3125C252.667 77.1458 252.146 78.0208 251.438 78.9375C250.896 78.8542 250.521 78.9167 250.312 79.125C250.104 79.3333 249.875 79.5208 249.625 79.6875C249.25 79.7708 248.979 79.7708 248.812 79.6875C248.646 79.6042 248.5 79.5 248.375 79.375C248.25 79.2917 248.083 79.1875 247.875 79.0625C247.708 78.9792 247.438 78.9375 247.062 78.9375C246.979 78.6042 246.875 78.2917 246.75 78C246.667 77.7083 246.396 77.6042 245.938 77.6875C246.021 77.3542 246.042 77.0833 246 76.875C245.958 76.625 245.896 76.4167 245.812 76.25C245.771 76.0417 245.729 75.8542 245.688 75.6875C245.646 75.4792 245.667 75.2292 245.75 74.9375C245.542 74.9375 245.375 74.7917 245.25 74.5C245.125 74.2083 244.979 73.9167 244.812 73.625C244.938 72.875 245.062 72.1667 245.188 71.5C245.312 70.8333 245.458 70.2083 245.625 69.625C245.833 69.0417 246 68.4583 246.125 67.875C246.25 67.2917 246.188 66.6875 245.938 66.0625C246.104 66.1875 246.229 66.1667 246.312 66C246.396 65.7917 246.458 65.5417 246.5 65.25C246.542 64.9167 246.562 64.6042 246.562 64.3125C246.562 63.9792 246.542 63.7083 246.5 63.5C246.917 62.4167 247.25 61.3125 247.5 60.1875C247.792 59.0208 248.042 57.875 248.25 56.75C248.5 55.625 248.75 54.5208 249 53.4375C249.25 52.3542 249.583 51.3542 250 50.4375C250.458 50.3542 250.958 50.4167 251.5 50.625C252.083 50.7917 252.438 51.0208 252.562 51.3125C253.646 50.4792 254.604 49.4792 255.438 48.3125C256.271 47.1042 257.125 45.9375 258 44.8125C258.875 43.6875 259.833 42.6875 260.875 41.8125C261.958 40.9375 263.312 40.4167 264.938 40.25C265.771 40.875 266.688 41.5208 267.688 42.1875C268.729 42.8125 269.583 43.6458 270.25 44.6875C270.583 44.8542 270.854 45.0417 271.062 45.25C271.312 45.4167 271.604 45.6042 271.938 45.8125V46.5625C272.438 47.0208 272.833 47.5625 273.125 48.1875C273.458 48.7708 273.75 49.4167 274 50.125C274.25 50.7917 274.5 51.4792 274.75 52.1875C275 52.8542 275.292 53.5 275.625 54.125C275.542 54.3333 275.5 54.5208 275.5 54.6875C275.5 54.8125 275.521 54.9583 275.562 55.125C275.646 55.2917 275.708 55.4583 275.75 55.625C275.792 55.7917 275.792 56.0208 275.75 56.3125C275.625 58.1458 275.021 59.625 273.938 60.75C272.896 61.875 271.625 62.8125 270.125 63.5625C268.625 64.2708 267.021 64.875 265.312 65.375C263.604 65.875 262.062 66.4167 260.688 67C260.688 67.1667 260.75 67.25 260.875 67.25C261.042 67.25 261.104 67.3542 261.062 67.5625C262.062 68.1875 262.854 68.6875 263.438 69.0625C264.021 69.4375 264.562 69.75 265.062 70C265.604 70.25 266.167 70.4792 266.75 70.6875C267.375 70.8542 268.229 71.0625 269.312 71.3125C270.396 71.5625 271.229 71.7708 271.812 71.9375C272.438 72.0625 273 72.1875 273.5 72.3125C274 72.3958 274.5 72.4792 275 72.5625C275.542 72.6042 276.292 72.6667 277.25 72.75C277.625 73.125 277.938 73.5833 278.188 74.125C278.479 74.625 278.667 75.1458 278.75 75.6875C278.833 76.1875 278.854 76.6875 278.812 77.1875C278.771 77.6458 278.625 78.0208 278.375 78.3125C278.417 78.4375 278.5 78.5 278.625 78.5C278.792 78.4583 278.958 78.4583 279.125 78.5C278.875 78.6667 278.667 78.875 278.5 79.125C278.333 79.375 278.167 79.625 278 79.875C277.833 80.125 277.646 80.3333 277.438 80.5C277.229 80.7083 276.938 80.8333 276.562 80.875C275.271 81.375 273.646 81.3958 271.688 80.9375C269.729 80.5208 267.25 79.7292 264.25 78.5625C262.75 77.9792 261.521 77.4792 260.562 77.0625C259.646 76.6042 258.833 76.1667 258.125 75.75C257.458 75.2917 256.833 74.8125 256.25 74.3125C255.708 73.8125 255.042 73.2083 254.25 72.5ZM263.188 51.0625C262.729 51.7292 262.208 52.3333 261.625 52.875C261.083 53.4167 260.542 53.9792 260 54.5625C259.5 55.1042 259.042 55.7292 258.625 56.4375C258.208 57.1042 257.917 57.8958 257.75 58.8125C259.208 58.6458 260.729 58.25 262.312 57.625C263.896 56.9583 265.396 56.3333 266.812 55.75C266.646 54.4583 266.188 53.4167 265.438 52.625C264.729 51.8333 263.979 51.3125 263.188 51.0625Z" fill="white"/>
<path d="M305 57C305 63.6883 301.348 70.4312 293.922 76.9293C286.503 83.4222 275.593 89.4061 261.853 94.4916C234.396 104.654 196.265 111 154 111C111.735 111 73.6036 104.654 46.1469 94.4916C32.407 89.4061 21.4974 83.4222 14.0777 76.9293C6.65198 70.4312 3 63.6883 3 57C3 50.3117 6.65198 43.5688 14.0777 37.0707C21.4974 30.5778 32.407 24.5939 46.1469 19.5084C73.6036 9.34585 111.735 3 154 3C196.265 3 234.396 9.34585 261.853 19.5084C275.593 24.5939 286.503 30.5778 293.922 37.0707C301.348 43.5688 305 50.3117 305 57Z" stroke="white" stroke-width="6"/>
</svg>
