<svg width="308" height="114" viewBox="0 0 308 114" fill="none" xmlns="http://www.w3.org/2000/svg">
<path d="M40.5508 72.623C39.4557 72.3587 38.6061 71.9245 38.002 71.3203C37.4355 70.6784 37.0013 69.9421 36.6992 69.1113C36.4349 68.2428 36.2461 67.2988 36.1328 66.2793C36.0573 65.2598 35.9629 64.2025 35.8496 63.1074C36.0007 62.6165 36.1895 62.2012 36.416 61.8613C36.6803 61.5215 36.7936 61.0495 36.7559 60.4453C37.1712 59.237 37.5488 58.0664 37.8887 56.9336C38.2285 55.8008 38.4551 54.6302 38.5684 53.4219C38.7949 53.082 39.0215 52.8555 39.248 52.7422C39.5501 50.5898 39.5879 48.3809 39.3613 46.1152C39.1348 43.8496 38.7572 41.7539 38.2285 39.8281C38.2663 39.4128 38.3229 39.1107 38.3984 38.9219C38.474 38.6953 38.474 38.5065 38.3984 38.3555C38.3229 38.0156 38.4362 37.8457 38.7383 37.8457C39.0404 37.8457 39.3424 37.8457 39.6445 37.8457C39.6445 37.166 39.5124 36.5052 39.248 35.8633C39.0215 35.1836 38.7949 34.4095 38.5684 33.541C38.8704 32.8613 39.0781 32.2005 39.1914 31.5586C39.3047 30.9167 39.5124 30.3314 39.8145 29.8027C41.0228 30.1803 42.2122 30.6146 43.3828 31.1055C44.5534 31.5964 45.7051 32.0872 46.8379 32.5781C47.9707 33.0312 49.0846 33.4844 50.1797 33.9375C51.2747 34.3529 52.3509 34.6927 53.4082 34.957C55.0319 36.1276 56.6934 37.2982 58.3926 38.4688C60.1296 39.6016 61.6966 40.8665 63.0938 42.2637C64.5286 43.623 65.7181 45.1901 66.6621 46.9648C67.6061 48.7396 68.1536 50.8353 68.3047 53.252C68.2292 53.4785 68.1725 53.6673 68.1348 53.8184C68.097 53.9694 68.0592 54.1204 68.0215 54.2715C67.9837 54.4225 67.9648 54.5924 67.9648 54.7812C67.9648 54.9701 67.9648 55.2344 67.9648 55.5742C66.6055 57.9531 64.8874 59.9544 62.8105 61.5781C60.7337 63.2018 58.4681 64.6367 56.0137 65.8828C53.5592 67.1289 50.9915 68.2806 48.3105 69.3379C45.6673 70.3574 43.0807 71.4525 40.5508 72.623ZM46.1016 40.5078C45.7617 40.5078 45.5163 40.5833 45.3652 40.7344C45.8184 42.4336 46.1582 44.0384 46.3848 45.5488C46.6113 47.0592 46.7246 48.5697 46.7246 50.0801C46.7624 51.5905 46.6868 53.1387 46.498 54.7246C46.3092 56.3105 46.0449 58.0286 45.7051 59.8789C46.196 59.8411 46.6302 59.7467 47.0078 59.5957C47.3854 59.4447 47.763 59.2747 48.1406 59.0859C48.556 58.8971 48.9714 58.7272 49.3867 58.5762C49.8398 58.4251 50.3496 58.3307 50.916 58.293C51.0671 57.9909 51.2559 57.7643 51.4824 57.6133C51.7467 57.4245 51.9733 57.2357 52.1621 57.0469C53.1061 56.6693 54.0501 56.2728 54.9941 55.8574C55.9382 55.4421 56.8066 54.9701 57.5996 54.4414C58.3926 53.9128 59.11 53.3086 59.752 52.6289C60.3939 51.9492 60.9225 51.1374 61.3379 50.1934C61.0358 49.627 60.6582 49.1549 60.2051 48.7773C59.7897 48.362 59.3366 47.9655 58.8457 47.5879C58.3926 47.1725 57.9395 46.7572 57.4863 46.3418C57.071 45.8887 56.7311 45.3789 56.4668 44.8125C55.8626 44.737 55.334 44.5859 54.8809 44.3594C54.4277 44.0951 53.9935 43.8496 53.5781 43.623C53.1628 43.3587 52.7096 43.1133 52.2188 42.8867C51.7656 42.6602 51.2181 42.528 50.5762 42.4902C49.5944 41.9616 48.707 41.6029 47.9141 41.4141C47.1211 41.1875 46.5169 40.8854 46.1016 40.5078ZM71.7598 70.0742C71.4577 69.7721 71.2311 69.4134 71.0801 68.998C70.9668 68.5827 70.6647 68.2428 70.1738 67.9785C70.0983 67.4121 69.985 66.7702 69.834 66.0527C69.7207 65.2975 69.5885 64.5423 69.4375 63.7871C69.3242 62.9941 69.2298 62.2201 69.1543 61.4648C69.1165 60.6719 69.1543 59.9544 69.2676 59.3125C69.3431 58.9727 69.4564 58.6517 69.6074 58.3496C69.7962 58.0475 69.9661 57.7643 70.1172 57.5C70.306 57.1979 70.4382 56.8958 70.5137 56.5938C70.627 56.2917 70.6458 55.9896 70.5703 55.6875C70.7969 55.6497 70.929 55.5365 70.9668 55.3477C71.0423 55.1211 71.2311 55.0456 71.5332 55.1211C71.7975 54.2904 72.0807 53.5163 72.3828 52.7988C72.6849 52.0814 73.0059 51.3828 73.3457 50.7031C73.6855 50.0234 74.0254 49.3438 74.3652 48.6641C74.7428 47.9466 75.0827 47.1536 75.3848 46.2852C74.7428 45.681 74.2708 45.0391 73.9688 44.3594C73.7044 43.6419 73.4967 42.9245 73.3457 42.207C73.1947 41.4896 73.0814 40.7721 73.0059 40.0547C72.9303 39.2995 72.7793 38.5443 72.5527 37.7891C73.0059 37.1094 73.5534 36.5618 74.1953 36.1465C74.8372 35.6934 75.5358 35.3346 76.291 35.0703C77.084 34.7682 77.9336 34.5417 78.8398 34.3906C79.7461 34.2018 80.709 33.9941 81.7285 33.7676C83.541 33.2012 85.1647 32.7669 86.5996 32.4648C88.0345 32.125 89.4316 31.8607 90.791 31.6719C92.1504 31.4453 93.5664 31.2565 95.0391 31.1055C96.5117 30.9167 98.2109 30.6523 100.137 30.3125C100.174 30.4258 100.231 30.4824 100.307 30.4824C100.42 30.4824 100.552 30.4824 100.703 30.4824C100.816 30.7467 101.024 30.8789 101.326 30.8789C101.326 30.7656 101.307 30.6712 101.27 30.5957C101.27 30.4824 101.27 30.388 101.27 30.3125C101.345 30.3125 101.439 30.3314 101.553 30.3691C101.704 30.4069 101.817 30.4447 101.893 30.4824C102.006 30.5202 102.1 30.5202 102.176 30.4824C102.251 30.4069 102.27 30.2747 102.232 30.0859C102.686 30.8789 103.271 31.5397 103.988 32.0684C104.706 32.5592 105.499 32.9935 106.367 33.3711C106.405 33.7109 106.405 33.9564 106.367 34.1074C106.367 34.2585 106.348 34.4095 106.311 34.5605C106.273 34.6738 106.254 34.8249 106.254 35.0137C106.254 35.1647 106.292 35.3913 106.367 35.6934C105.763 36.7129 105.064 37.5059 104.271 38.0723C103.516 38.6387 102.704 39.0729 101.836 39.375C100.967 39.6771 100.042 39.9036 99.0605 40.0547C98.1165 40.2057 97.1348 40.3757 96.1152 40.5645C95.1335 40.7155 94.1328 40.9421 93.1133 41.2441C92.0938 41.5462 91.0931 41.9993 90.1113 42.6035C89.8092 42.4902 89.526 42.4525 89.2617 42.4902C89.0352 42.4902 88.7897 42.528 88.5254 42.6035C88.2611 42.679 87.959 42.7546 87.6191 42.8301C87.3171 42.9056 86.9395 42.9056 86.4863 42.8301C86.1842 43.0944 85.8255 43.2832 85.4102 43.3965C85.0326 43.5098 84.6361 43.623 84.2207 43.7363C84.4095 44.1517 84.485 44.5671 84.4473 44.9824C84.4473 45.3978 84.5039 45.7565 84.6172 46.0586C86.2031 46.2096 87.959 46.2096 89.8848 46.0586C91.8105 45.8698 93.6986 45.7376 95.5488 45.6621C95.5866 45.8509 95.5677 45.9831 95.4922 46.0586C95.4167 46.1341 95.3789 46.2663 95.3789 46.4551C95.7188 46.6816 96.0397 46.9648 96.3418 47.3047C96.6439 47.6445 96.946 47.9844 97.248 48.3242C97.5879 48.6263 97.9277 48.8906 98.2676 49.1172C98.6074 49.306 99.0039 49.3815 99.457 49.3438C99.6458 49.7214 99.778 50.1178 99.8535 50.5332C99.929 50.9486 99.8724 51.3828 99.6836 51.8359C98.9284 52.3268 98.1921 52.8366 97.4746 53.3652C96.7572 53.8561 96.002 54.3092 95.209 54.7246C94.4538 55.14 93.623 55.4798 92.7168 55.7441C91.8105 56.0085 90.8288 56.1217 89.7715 56.084C89.5827 56.084 89.4128 56.084 89.2617 56.084C89.1484 56.084 88.9974 56.0085 88.8086 55.8574C88.431 56.0462 87.9212 56.1217 87.2793 56.084C86.6751 56.0085 86.1654 56.0651 85.75 56.2539C85.2214 56.0651 84.5983 55.9707 83.8809 55.9707C83.2012 55.9707 82.597 55.8763 82.0684 55.6875C81.3887 56.6693 80.7467 57.7077 80.1426 58.8027C79.5384 59.86 79.0098 60.9928 78.5566 62.2012C80.1048 62.4277 81.3887 62.5221 82.4082 62.4844C83.4277 62.4466 84.3906 62.3711 85.2969 62.2578C86.2031 62.1445 87.1283 62.0312 88.0723 61.918C89.054 61.8047 90.2435 61.7669 91.6406 61.8047C92.5846 61.3516 93.6608 61.0495 94.8691 60.8984C96.1152 60.7096 97.2669 60.4453 98.3242 60.1055C98.7018 60.2188 99.0228 60.4453 99.2871 60.7852C99.5514 61.0872 99.7969 61.4082 100.023 61.748C100.288 62.0501 100.552 62.3145 100.816 62.541C101.081 62.7676 101.421 62.8431 101.836 62.7676C102.025 62.9564 102.138 63.1829 102.176 63.4473C102.251 63.7116 102.308 63.957 102.346 64.1836C102.421 64.4102 102.516 64.599 102.629 64.75C102.742 64.8633 102.95 64.901 103.252 64.8633C102.535 66.3359 101.723 67.4688 100.816 68.2617C99.9479 69.0547 98.9473 69.6777 97.8145 70.1309C96.7194 70.5462 95.4733 70.8672 94.0762 71.0938C92.7168 71.2826 91.1875 71.528 89.4883 71.8301C89.0729 71.9056 88.7142 71.9056 88.4121 71.8301C88.1478 71.7168 87.8646 71.6602 87.5625 71.6602C86.5052 71.849 85.2402 72.0378 83.7676 72.2266C82.3327 72.4154 80.8789 72.4909 79.4062 72.4531C77.9336 72.4154 76.5176 72.2266 75.1582 71.8867C73.7988 71.5469 72.666 70.9427 71.7598 70.0742ZM108.18 69.9043C108.029 69.7533 107.896 69.5833 107.783 69.3945C107.67 69.168 107.576 68.8848 107.5 68.5449C106.971 67.903 106.556 67.1667 106.254 66.3359C105.952 65.5052 105.744 64.6556 105.631 63.7871C105.518 62.8809 105.499 61.9746 105.574 61.0684C105.65 60.1621 105.782 59.3125 105.971 58.5195C106.084 58.1419 106.178 57.7454 106.254 57.3301C106.443 56.6126 106.632 55.9141 106.82 55.2344C107.009 54.5169 107.292 53.9316 107.67 53.4785C107.519 53.0632 107.538 52.61 107.727 52.1191C107.915 51.6283 108.104 51.1751 108.293 50.7598C108.368 50.6465 108.425 50.5521 108.463 50.4766C108.501 50.3633 108.538 50.2689 108.576 50.1934C109.029 48.8717 109.464 47.6068 109.879 46.3984C110.332 45.1523 110.766 43.9629 111.182 42.8301C111.937 40.7533 112.654 38.7142 113.334 36.7129C114.051 34.7116 114.693 32.5781 115.26 30.3125C115.562 30.0859 115.826 29.9349 116.053 29.8594C116.128 29.8216 116.223 29.7839 116.336 29.7461C116.449 29.7083 116.581 29.6895 116.732 29.6895C117.525 30.1048 118.451 30.5013 119.508 30.8789C120.603 31.2188 121.528 31.3887 122.283 31.3887L123.246 32.2383C123.737 32.8047 124.152 33.4089 124.492 34.0508C124.87 34.6549 124.983 35.4479 124.832 36.4297C124.605 36.7695 124.417 36.9772 124.266 37.0527C124.039 37.9212 123.794 38.6953 123.529 39.375C123.265 40.0169 123.001 40.64 122.736 41.2441C122.434 41.9238 122.151 42.6035 121.887 43.2832C121.622 43.9629 121.396 44.7936 121.207 45.7754C120.98 46.0397 120.829 46.2663 120.754 46.4551C120.716 46.6439 120.66 46.8327 120.584 47.0215C120.508 47.248 120.414 47.4935 120.301 47.7578C120.188 47.9844 120.018 48.1921 119.791 48.3809C119.64 49.5514 119.413 50.5143 119.111 51.2695C118.809 51.987 118.507 52.7044 118.205 53.4219C117.676 54.7435 117.186 56.0651 116.732 57.3867C116.279 58.6706 116.015 60.1432 115.939 61.8047C116.393 61.6914 116.808 61.6348 117.186 61.6348C117.676 61.6348 118.148 61.7103 118.602 61.8613C119.961 61.1816 121.434 60.7663 123.02 60.6152C124.643 60.4642 126.248 60.3698 127.834 60.332C129.156 60.332 130.383 60.2754 131.516 60.1621C131.893 60.4264 132.139 60.5775 132.252 60.6152C132.365 60.6152 132.554 60.6152 132.818 60.6152C132.932 60.6152 133.045 60.6152 133.158 60.6152C133.271 60.6152 133.423 60.6341 133.611 60.6719C134.14 61.2005 134.65 61.5781 135.141 61.8047C135.632 61.9935 136.16 62.1823 136.727 62.3711C137.217 62.5599 137.689 62.7676 138.143 62.9941C138.633 63.1829 139.105 63.4473 139.559 63.7871L140.068 66.6758C140.37 67.0911 140.503 67.3743 140.465 67.5254C140.465 67.8275 140.389 68.0918 140.238 68.3184L140.352 69.0547C139.634 69.2057 139.162 69.3757 138.936 69.5645C138.709 69.7155 138.464 69.9232 138.199 70.1875C137.784 70.2253 137.387 70.2441 137.01 70.2441C136.255 70.2441 135.48 70.3574 134.688 70.584C133.555 70.1686 132.309 69.9609 130.949 69.9609C130.421 69.9609 129.873 69.9798 129.307 70.0176C128.778 70.0553 128.249 70.112 127.721 70.1875C127.154 70.263 126.588 70.3385 126.021 70.4141C125.455 70.4518 124.889 70.4707 124.322 70.4707C123.869 70.5462 123.548 70.6029 123.359 70.6406C123.171 70.6784 122.982 70.735 122.793 70.8105C121.509 71.2259 120.112 71.6413 118.602 72.0566C117.129 72.472 115.637 72.6797 114.127 72.6797C111.899 72.6797 110.105 72.1133 108.746 70.9805C108.595 70.6406 108.482 70.4141 108.406 70.3008C108.331 70.1875 108.255 70.0553 108.18 69.9043ZM144.826 70.0742C144.524 69.7721 144.298 69.4134 144.146 68.998C144.033 68.5827 143.731 68.2428 143.24 67.9785C143.165 67.4121 143.051 66.7702 142.9 66.0527C142.787 65.2975 142.655 64.5423 142.504 63.7871C142.391 62.9941 142.296 62.2201 142.221 61.4648C142.183 60.6719 142.221 59.9544 142.334 59.3125C142.41 58.9727 142.523 58.6517 142.674 58.3496C142.863 58.0475 143.033 57.7643 143.184 57.5C143.372 57.1979 143.505 56.8958 143.58 56.5938C143.693 56.2917 143.712 55.9896 143.637 55.6875C143.863 55.6497 143.995 55.5365 144.033 55.3477C144.109 55.1211 144.298 55.0456 144.6 55.1211C144.864 54.2904 145.147 53.5163 145.449 52.7988C145.751 52.0814 146.072 51.3828 146.412 50.7031C146.752 50.0234 147.092 49.3438 147.432 48.6641C147.809 47.9466 148.149 47.1536 148.451 46.2852C147.809 45.681 147.337 45.0391 147.035 44.3594C146.771 43.6419 146.563 42.9245 146.412 42.207C146.261 41.4896 146.148 40.7721 146.072 40.0547C145.997 39.2995 145.846 38.5443 145.619 37.7891C146.072 37.1094 146.62 36.5618 147.262 36.1465C147.904 35.6934 148.602 35.3346 149.357 35.0703C150.15 34.7682 151 34.5417 151.906 34.3906C152.812 34.2018 153.775 33.9941 154.795 33.7676C156.607 33.2012 158.231 32.7669 159.666 32.4648C161.101 32.125 162.498 31.8607 163.857 31.6719C165.217 31.4453 166.633 31.2565 168.105 31.1055C169.578 30.9167 171.277 30.6523 173.203 30.3125C173.241 30.4258 173.298 30.4824 173.373 30.4824C173.486 30.4824 173.618 30.4824 173.77 30.4824C173.883 30.7467 174.09 30.8789 174.393 30.8789C174.393 30.7656 174.374 30.6712 174.336 30.5957C174.336 30.4824 174.336 30.388 174.336 30.3125C174.411 30.3125 174.506 30.3314 174.619 30.3691C174.77 30.4069 174.883 30.4447 174.959 30.4824C175.072 30.5202 175.167 30.5202 175.242 30.4824C175.318 30.4069 175.337 30.2747 175.299 30.0859C175.752 30.8789 176.337 31.5397 177.055 32.0684C177.772 32.5592 178.565 32.9935 179.434 33.3711C179.471 33.7109 179.471 33.9564 179.434 34.1074C179.434 34.2585 179.415 34.4095 179.377 34.5605C179.339 34.6738 179.32 34.8249 179.32 35.0137C179.32 35.1647 179.358 35.3913 179.434 35.6934C178.829 36.7129 178.131 37.5059 177.338 38.0723C176.583 38.6387 175.771 39.0729 174.902 39.375C174.034 39.6771 173.109 39.9036 172.127 40.0547C171.183 40.2057 170.201 40.3757 169.182 40.5645C168.2 40.7155 167.199 40.9421 166.18 41.2441C165.16 41.5462 164.16 41.9993 163.178 42.6035C162.876 42.4902 162.592 42.4525 162.328 42.4902C162.102 42.4902 161.856 42.528 161.592 42.6035C161.327 42.679 161.025 42.7546 160.686 42.8301C160.383 42.9056 160.006 42.9056 159.553 42.8301C159.251 43.0944 158.892 43.2832 158.477 43.3965C158.099 43.5098 157.702 43.623 157.287 43.7363C157.476 44.1517 157.551 44.5671 157.514 44.9824C157.514 45.3978 157.57 45.7565 157.684 46.0586C159.27 46.2096 161.025 46.2096 162.951 46.0586C164.877 45.8698 166.765 45.7376 168.615 45.6621C168.653 45.8509 168.634 45.9831 168.559 46.0586C168.483 46.1341 168.445 46.2663 168.445 46.4551C168.785 46.6816 169.106 46.9648 169.408 47.3047C169.71 47.6445 170.012 47.9844 170.314 48.3242C170.654 48.6263 170.994 48.8906 171.334 49.1172C171.674 49.306 172.07 49.3815 172.523 49.3438C172.712 49.7214 172.844 50.1178 172.92 50.5332C172.995 50.9486 172.939 51.3828 172.75 51.8359C171.995 52.3268 171.258 52.8366 170.541 53.3652C169.824 53.8561 169.068 54.3092 168.275 54.7246C167.52 55.14 166.689 55.4798 165.783 55.7441C164.877 56.0085 163.895 56.1217 162.838 56.084C162.649 56.084 162.479 56.084 162.328 56.084C162.215 56.084 162.064 56.0085 161.875 55.8574C161.497 56.0462 160.988 56.1217 160.346 56.084C159.742 56.0085 159.232 56.0651 158.816 56.2539C158.288 56.0651 157.665 55.9707 156.947 55.9707C156.268 55.9707 155.663 55.8763 155.135 55.6875C154.455 56.6693 153.813 57.7077 153.209 58.8027C152.605 59.86 152.076 60.9928 151.623 62.2012C153.171 62.4277 154.455 62.5221 155.475 62.4844C156.494 62.4466 157.457 62.3711 158.363 62.2578C159.27 62.1445 160.195 62.0312 161.139 61.918C162.12 61.8047 163.31 61.7669 164.707 61.8047C165.651 61.3516 166.727 61.0495 167.936 60.8984C169.182 60.7096 170.333 60.4453 171.391 60.1055C171.768 60.2188 172.089 60.4453 172.354 60.7852C172.618 61.0872 172.863 61.4082 173.09 61.748C173.354 62.0501 173.618 62.3145 173.883 62.541C174.147 62.7676 174.487 62.8431 174.902 62.7676C175.091 62.9564 175.204 63.1829 175.242 63.4473C175.318 63.7116 175.374 63.957 175.412 64.1836C175.488 64.4102 175.582 64.599 175.695 64.75C175.809 64.8633 176.016 64.901 176.318 64.8633C175.601 66.3359 174.789 67.4688 173.883 68.2617C173.014 69.0547 172.014 69.6777 170.881 70.1309C169.786 70.5462 168.54 70.8672 167.143 71.0938C165.783 71.2826 164.254 71.528 162.555 71.8301C162.139 71.9056 161.781 71.9056 161.479 71.8301C161.214 71.7168 160.931 71.6602 160.629 71.6602C159.572 71.849 158.307 72.0378 156.834 72.2266C155.399 72.4154 153.945 72.4909 152.473 72.4531C151 72.4154 149.584 72.2266 148.225 71.8867C146.865 71.5469 145.732 70.9427 144.826 70.0742ZM179.264 40.0547C179.226 39.7526 179.15 39.4883 179.037 39.2617C178.962 38.9974 178.867 38.7142 178.754 38.4121C178.565 37.959 178.395 37.4681 178.244 36.9395C178.093 36.4108 178.018 35.7878 178.018 35.0703C178.093 34.6927 178.188 34.4284 178.301 34.2773C178.414 34.0885 178.527 33.9375 178.641 33.8242L178.867 32.8047H179.717C180.019 32.8424 180.321 32.8613 180.623 32.8613C180.963 32.8613 181.284 32.8613 181.586 32.8613C183.021 32.8613 184.493 32.8047 186.004 32.6914C187.514 32.5781 189.062 32.446 190.648 32.2949C192.385 32.0684 194.255 31.8984 196.256 31.7852C196.445 31.3698 196.558 31.1055 196.596 30.9922C196.671 30.8789 196.747 30.7467 196.822 30.5957L197.445 30.2559C198.314 30.2181 198.918 30.3314 199.258 30.5957C199.598 30.8223 199.862 31.0488 200.051 31.2754C201.033 31.1999 202.033 31.1055 203.053 30.9922C204.072 30.8411 205.13 30.6901 206.225 30.5391C207.735 30.3503 209.264 30.1615 210.812 29.9727C212.361 29.7839 213.871 29.6895 215.344 29.6895C215.986 29.6895 216.59 29.7083 217.156 29.7461C217.723 29.7839 218.27 29.8405 218.799 29.916L219.479 30.4258C219.63 30.6901 219.818 30.9355 220.045 31.1621C220.271 31.3887 220.536 31.6152 220.838 31.8418C221.404 32.2949 221.952 32.8613 222.48 33.541C223.047 34.2207 223.255 35.2214 223.104 36.543L222.82 37.1094C222.669 37.2604 222.48 37.4115 222.254 37.5625L221.688 38.2988H221.064C220.687 38.2988 220.404 38.3366 220.215 38.4121C220.026 38.4499 219.799 38.5254 219.535 38.6387C219.384 38.7142 219.214 38.7897 219.025 38.8652C218.837 38.903 218.629 38.9596 218.402 39.0352C217.987 38.9974 217.666 38.9785 217.439 38.9785C217.213 38.9785 216.949 38.9785 216.646 38.9785C215.514 38.9785 214.286 39.054 212.965 39.2051C211.643 39.3561 210.359 39.526 209.113 39.7148C208.207 39.8281 207.339 39.9414 206.508 40.0547C205.677 40.1302 204.922 40.2057 204.242 40.2812C203.865 41.263 203.525 42.1315 203.223 42.8867C202.921 43.6419 202.6 44.3971 202.26 45.1523C201.92 45.9076 201.599 46.6816 201.297 47.4746C200.995 48.2298 200.712 49.0794 200.447 50.0234C199.994 50.7031 199.617 51.3639 199.314 52.0059C199.012 52.61 198.767 53.3086 198.578 54.1016C198.012 54.7435 197.596 55.4421 197.332 56.1973C197.105 56.9525 196.898 57.5944 196.709 58.123L196.482 58.9727C196.218 59.237 196.048 59.4447 195.973 59.5957C195.935 59.7467 195.84 59.9167 195.689 60.1055C195.576 60.5964 195.425 61.0684 195.236 61.5215C195.161 61.7103 195.085 61.918 195.01 62.1445C194.934 62.3333 194.915 62.4844 194.953 62.5977C194.878 63.013 194.764 63.334 194.613 63.5605C194.613 63.7871 194.594 64.0137 194.557 64.2402C194.519 64.4668 194.481 64.6934 194.443 64.9199C194.368 65.1842 194.311 65.4297 194.273 65.6562C194.236 65.8451 194.255 66.0339 194.33 66.2227C194.443 66.3737 194.557 66.5247 194.67 66.6758C194.783 66.8268 194.878 67.0156 194.953 67.2422C195.029 67.3177 195.123 67.3743 195.236 67.4121C195.35 67.4499 195.444 67.5065 195.52 67.582C195.822 67.8464 196.105 67.9974 196.369 68.0352L196.936 68.7148C197.162 70.0742 196.954 71.1315 196.312 71.8867C195.633 72.7552 194.5 73.1895 192.914 73.1895L192.121 73.1328C191.857 72.8685 191.706 72.6986 191.668 72.623C191.328 72.472 191.045 72.3398 190.818 72.2266C190.592 72.151 190.384 71.9811 190.195 71.7168C190.12 71.6413 190.025 71.6035 189.912 71.6035C189.799 71.5658 189.704 71.5091 189.629 71.4336C189.251 71.3203 188.949 71.1882 188.723 71.0371L188.1 70.6973C188.137 70.3197 188.156 70.0553 188.156 69.9043C187.854 69.4889 187.609 69.0358 187.42 68.5449C187.269 68.054 187.137 67.5443 187.023 67.0156C186.91 66.6003 186.797 66.2227 186.684 65.8828C186.608 65.543 186.476 65.2409 186.287 64.9766C186.212 62.3333 186.457 60.1243 187.023 58.3496C187.59 56.5371 188.213 54.7812 188.893 53.082C189.27 52.1758 189.629 51.2507 189.969 50.3066C190.309 49.3626 190.611 48.3997 190.875 47.418L191.498 46.7949C191.762 46.5684 191.932 46.4362 192.008 46.3984C192.008 45.9076 192.102 45.4355 192.291 44.9824C192.48 44.4915 192.688 44.0007 192.914 43.5098C193.065 43.2077 193.197 42.9056 193.311 42.6035C193.462 42.3014 193.556 42.0371 193.594 41.8105C193.329 41.8105 193.084 41.8294 192.857 41.8672C192.669 41.8672 192.461 41.8861 192.234 41.9238C191.743 42.0371 191.271 42.0938 190.818 42.0938C190.479 42.0938 190.233 42.0749 190.082 42.0371C189.78 42.1882 189.497 42.2826 189.232 42.3203C188.968 42.3203 188.704 42.3203 188.439 42.3203H187.76H187.08C186.627 42.3203 186.268 42.377 186.004 42.4902C185.475 42.4902 185.135 42.4902 184.984 42.4902C184.833 42.4902 184.663 42.4902 184.475 42.4902H183.795H183.115C182.813 42.4902 182.473 42.4714 182.096 42.4336C181.718 42.3581 181.322 42.207 180.906 41.9805L180.51 41.5273C180.283 41.112 180.076 40.8854 179.887 40.8477L179.264 40.6777V40.0547ZM208.887 66.6191L209.623 66.0527L209.68 64.8633C210.624 62.5599 211.587 60.3509 212.568 58.2363C213.588 56.1217 214.645 53.9505 215.74 51.7227C216.08 51.0052 216.42 50.2878 216.76 49.5703C217.137 48.8529 217.496 48.1165 217.836 47.3613C217.798 47.2103 217.779 47.0592 217.779 46.9082C217.779 46.7194 217.817 46.5117 217.893 46.2852C218.421 45.5299 218.837 44.8503 219.139 44.2461C219.479 43.6419 219.799 43.0189 220.102 42.377C220.441 41.6217 220.8 40.8665 221.178 40.1113C221.593 39.3561 222.103 38.6198 222.707 37.9023L223.104 37.3359L223.727 37.3926C223.878 37.3171 224.029 37.2604 224.18 37.2227C224.368 37.1471 224.595 37.1094 224.859 37.1094L225.879 37.2793C227.125 36.7129 228.22 35.901 229.164 34.8438C230.146 33.7487 231.128 32.446 232.109 30.9355L232.789 29.9727L233.695 30.5391C233.884 30.6523 234.186 30.7656 234.602 30.8789C235.017 30.9922 235.451 31.1243 235.904 31.2754C236.697 31.4642 237.471 31.6908 238.227 31.9551C238.982 32.1816 239.567 32.5026 239.982 32.918L240.266 33.4277C240.341 33.8431 240.398 34.2207 240.436 34.5605C240.511 34.9004 240.587 35.2402 240.662 35.5801C240.813 36.373 240.945 37.166 241.059 37.959C241.172 38.7142 241.247 39.5638 241.285 40.5078C241.474 41.263 241.644 42.0371 241.795 42.8301C241.984 43.5853 242.154 44.3405 242.305 45.0957C242.493 46.1908 242.701 47.248 242.928 48.2676C243.154 49.2493 243.456 50.1934 243.834 51.0996C244.212 51.0996 244.438 51.1185 244.514 51.1562C244.967 50.9674 245.495 50.8542 246.1 50.8164L246.836 50.7598L247.062 51.4395C247.138 51.5527 247.232 51.666 247.346 51.7793C247.459 51.8926 247.591 52.0059 247.742 52.1191C248.346 52.1569 248.781 52.2891 249.045 52.5156C249.347 52.7044 249.592 52.8932 249.781 53.082C249.857 53.1576 249.951 53.252 250.064 53.3652C250.178 53.4408 250.272 53.4974 250.348 53.5352L251.367 53.9316L250.801 55.0078C250.385 55.8008 249.743 56.5749 248.875 57.3301C248.044 58.0853 247.1 58.7083 246.043 59.1992C246.118 59.4635 246.156 59.709 246.156 59.9355C246.194 60.1621 246.251 60.4264 246.326 60.7285C246.477 61.4837 246.59 62.2767 246.666 63.1074C246.779 63.9004 246.779 64.7311 246.666 65.5996C246.288 66.5814 245.835 67.4688 245.307 68.2617C244.816 69.0169 244.212 69.7155 243.494 70.3574C242.814 70.9616 242.04 71.4714 241.172 71.8867C240.303 72.2643 239.397 72.472 238.453 72.5098C237.924 72.3965 237.528 72.2643 237.264 72.1133C237.037 71.9622 236.829 71.8112 236.641 71.6602C236.339 71.4336 236.093 71.2826 235.904 71.207L235.168 70.8672L235.395 70.0176C235.508 69.7155 235.489 69.4512 235.338 69.2246C235.225 68.998 234.96 68.696 234.545 68.3184C234.394 68.2051 234.262 68.0918 234.148 67.9785C234.035 67.8275 233.903 67.6764 233.752 67.5254L232.619 66.2227L234.488 65.7129C235.621 65.4108 236.376 65.0332 236.754 64.5801C237.132 64.0892 237.283 63.2396 237.207 62.0312C236.263 61.8424 235.489 61.8236 234.885 61.9746C234.281 62.0879 233.676 62.2201 233.072 62.3711C232.204 62.5977 231.354 62.8053 230.523 62.9941C229.693 63.1452 228.786 63.2207 227.805 63.2207C227.163 63.2207 226.483 63.1641 225.766 63.0508L225.143 62.9941L224.973 62.3711C224.973 62.2956 224.916 62.2201 224.803 62.1445C224.727 62.0312 224.652 61.9368 224.576 61.8613C224.387 61.6348 224.161 61.3327 223.896 60.9551C223.632 60.5775 223.576 60.1055 223.727 59.5391C223.462 59.1237 223.311 58.6895 223.273 58.2363C223.122 58.5384 222.99 58.8405 222.877 59.1426C222.801 59.4069 222.726 59.6712 222.65 59.9355L222.424 60.6719L221.688 60.7852C221.612 60.8607 221.536 60.974 221.461 61.125C221.423 61.276 221.423 61.3893 221.461 61.4648L221.688 62.0879L221.121 62.5977C221.046 62.7109 220.951 62.8053 220.838 62.8809C220.725 62.9564 220.63 63.0319 220.555 63.1074C220.479 63.5228 220.366 63.9193 220.215 64.2969C220.102 64.6745 219.969 65.0521 219.818 65.4297C219.63 66.0339 219.441 66.6191 219.252 67.1855C219.101 67.752 219.025 68.3184 219.025 68.8848L218.799 69.6211C218.61 69.9232 218.365 70.1497 218.062 70.3008C217.798 70.4518 217.534 70.584 217.27 70.6973C216.892 70.8483 216.628 70.9993 216.477 71.1504L216.307 71.8867L215.457 72C214.966 72.1133 214.607 72.1888 214.381 72.2266C214.192 72.2643 213.965 72.2832 213.701 72.2832L212.965 72.2266C212.512 71.7734 212.134 71.4336 211.832 71.207C211.568 70.9427 211.247 70.7161 210.869 70.5273L210.529 70.0742C210.378 69.7721 210.284 69.5078 210.246 69.2812C210.208 69.0169 210.152 68.7526 210.076 68.4883C210.001 67.9974 209.887 67.6576 209.736 67.4688L208.887 66.6191ZM226.955 51.8926C226.426 52.6478 225.917 53.4408 225.426 54.2715C225.69 54.2337 225.936 54.2148 226.162 54.2148C226.426 54.2148 226.691 54.196 226.955 54.1582C228.277 54.0827 229.504 53.9883 230.637 53.875C231.77 53.7617 232.997 53.5729 234.318 53.3086C234.016 51.9115 233.676 50.4954 233.299 49.0605C232.959 47.5879 232.581 46.1152 232.166 44.6426L231.883 45.209C230.939 46.2285 230.033 47.3236 229.164 48.4941C228.296 49.6647 227.578 50.7786 227.012 51.8359L226.955 51.8926ZM252.67 67.1289C252.481 67.1667 252.311 67.0345 252.16 66.7324C252.009 66.3926 251.839 66.0716 251.65 65.7695H252.273C252.009 64.9388 251.934 64.1836 252.047 63.5039C252.198 62.7865 252.368 62.1068 252.557 61.4648C252.745 60.7852 252.896 60.1432 253.01 59.5391C253.161 58.8971 253.104 58.2363 252.84 57.5566C253.029 57.6699 253.161 57.6322 253.236 57.4434C253.35 57.2168 253.425 56.9525 253.463 56.6504C253.538 56.3105 253.557 55.9707 253.52 55.6309C253.52 55.2533 253.501 54.9512 253.463 54.7246C253.954 53.554 254.331 52.3457 254.596 51.0996C254.898 49.8535 255.162 48.6263 255.389 47.418C255.615 46.1719 255.861 44.9824 256.125 43.8496C256.427 42.679 256.805 41.584 257.258 40.5645C257.786 40.4889 258.334 40.5645 258.9 40.791C259.505 40.9798 259.901 41.2253 260.09 41.5273C261.26 40.6211 262.299 39.526 263.205 38.2422C264.111 36.9583 265.018 35.7122 265.924 34.5039C266.868 33.2578 267.925 32.1628 269.096 31.2188C270.266 30.2747 271.72 29.7083 273.457 29.5195C274.363 30.1615 275.383 30.86 276.516 31.6152C277.648 32.3327 278.574 33.2389 279.291 34.334C279.593 34.5228 279.876 34.7305 280.141 34.957C280.443 35.1458 280.745 35.3346 281.047 35.5234V36.373C281.576 36.8639 282.01 37.4492 282.35 38.1289C282.727 38.7708 283.048 39.4694 283.312 40.2246C283.615 40.9421 283.898 41.6784 284.162 42.4336C284.426 43.1888 284.729 43.8874 285.068 44.5293C284.993 44.7559 284.955 44.9635 284.955 45.1523C284.993 45.3034 285.031 45.4733 285.068 45.6621C285.144 45.8132 285.201 46.002 285.238 46.2285C285.276 46.4173 285.295 46.6628 285.295 46.9648C285.144 48.9661 284.483 50.5898 283.312 51.8359C282.18 53.0443 280.783 54.0449 279.121 54.8379C277.497 55.5931 275.76 56.2539 273.91 56.8203C272.06 57.349 270.38 57.9342 268.869 58.5762C268.869 58.7272 268.945 58.8027 269.096 58.8027C269.285 58.8027 269.341 58.916 269.266 59.1426C270.398 59.8223 271.267 60.3698 271.871 60.7852C272.513 61.2005 273.098 61.5592 273.627 61.8613C274.193 62.1257 274.798 62.3522 275.439 62.541C276.119 62.7298 277.044 62.9564 278.215 63.2207C279.385 63.485 280.292 63.7116 280.934 63.9004C281.613 64.0514 282.217 64.1836 282.746 64.2969C283.275 64.3724 283.841 64.4479 284.445 64.5234C285.049 64.599 285.861 64.6934 286.881 64.8066C287.296 65.222 287.636 65.7129 287.9 66.2793C288.165 66.8457 288.354 67.4121 288.467 67.9785C288.58 68.5449 288.599 69.0924 288.523 69.6211C288.486 70.112 288.335 70.5085 288.07 70.8105C288.108 70.9616 288.202 71.0371 288.354 71.0371C288.542 70.9993 288.731 70.9993 288.92 71.0371C288.656 71.2259 288.429 71.4525 288.24 71.7168C288.051 71.9811 287.863 72.2454 287.674 72.5098C287.485 72.7741 287.258 73.0195 286.994 73.2461C286.768 73.4727 286.465 73.6048 286.088 73.6426C284.729 74.1712 282.992 74.1901 280.877 73.6992C278.762 73.2083 276.062 72.3398 272.777 71.0938C271.154 70.4896 269.832 69.9421 268.812 69.4512C267.793 68.9603 266.906 68.4883 266.15 68.0352C265.395 67.5443 264.697 67.0345 264.055 66.5059C263.413 65.9395 262.676 65.2786 261.846 64.5234C261.732 64.5612 261.657 64.6367 261.619 64.75C261.619 64.8633 261.562 64.9388 261.449 64.9766C261.26 66.487 260.958 67.7142 260.543 68.6582C260.165 69.6022 259.599 70.5651 258.844 71.5469C258.24 71.4336 257.824 71.4902 257.598 71.7168C257.409 71.9434 257.163 72.151 256.861 72.3398C256.484 72.4154 256.201 72.3965 256.012 72.2832C255.823 72.2077 255.653 72.1133 255.502 72C255.351 71.8867 255.181 71.7734 254.992 71.6602C254.803 71.5469 254.501 71.5091 254.086 71.5469C253.973 71.207 253.859 70.8861 253.746 70.584C253.633 70.2441 253.331 70.0931 252.84 70.1309C252.953 69.791 252.991 69.5078 252.953 69.2812C252.915 69.0169 252.859 68.7904 252.783 68.6016C252.708 68.375 252.632 68.1484 252.557 67.9219C252.519 67.6953 252.557 67.431 252.67 67.1289ZM271.588 41.2441C271.097 41.9616 270.549 42.6224 269.945 43.2266C269.341 43.793 268.737 44.3971 268.133 45.0391C267.566 45.6432 267.057 46.3229 266.604 47.0781C266.15 47.7956 265.829 48.6641 265.641 49.6836C267.227 49.4948 268.888 49.0605 270.625 48.3809C272.362 47.6634 274.005 46.9837 275.553 46.3418C275.364 44.9447 274.873 43.8307 274.08 43C273.287 42.1315 272.456 41.5462 271.588 41.2441Z" fill="white"/>
<path d="M305 57C305 63.6883 301.348 70.4312 293.922 76.9293C286.503 83.4222 275.593 89.4061 261.853 94.4916C234.396 104.654 196.265 111 154 111C111.735 111 73.6036 104.654 46.1469 94.4916C32.407 89.4061 21.4974 83.4222 14.0777 76.9293C6.65198 70.4312 3 63.6883 3 57C3 50.3117 6.65198 43.5688 14.0777 37.0707C21.4974 30.5778 32.407 24.5939 46.1469 19.5084C73.6036 9.34585 111.735 3 154 3C196.265 3 234.396 9.34585 261.853 19.5084C275.593 24.5939 286.503 30.5778 293.922 37.0707C301.348 43.5688 305 50.3117 305 57Z" stroke="white" stroke-width="6"/>
</svg>
