<?xml version="1.0" standalone="no"?>
<!DOCTYPE svg PUBLIC "-//W3C//DTD SVG 20010904//EN"
 "http://www.w3.org/TR/2001/REC-SVG-20010904/DTD/svg10.dtd">
<svg version="1.0" xmlns="http://www.w3.org/2000/svg"
 width="558.000000pt" height="447.000000pt" viewBox="0 0 558.000000 447.000000"
 preserveAspectRatio="xMidYMid meet" fill="white">

<g transform="translate(0.000000,447.000000) scale(0.100000,-0.100000)"
fill="#ffff" stroke="none">
<path d="M927 4455 c-101 -15 -201 -59 -241 -106 -14 -17 -35 -62 -47 -101
-19 -63 -21 -84 -15 -211 4 -78 8 -164 9 -192 l2 -49 -80 -23 c-44 -13 -129
-31 -190 -39 -131 -17 -230 -7 -309 33 l-49 25 5 -114 c7 -142 32 -215 94
-275 51 -49 83 -58 192 -50 72 4 215 43 344 93 26 10 50 15 53 12 4 -4 20 -58
35 -120 47 -187 85 -283 141 -354 32 -42 108 -84 149 -84 44 0 142 29 219 65
l74 35 -61 60 c-113 110 -182 252 -227 466 l-6 31 83 26 c132 40 214 52 348
52 95 -1 134 -5 164 -18 21 -9 42 -17 47 -17 14 0 31 111 24 159 -14 102 -61
156 -168 192 -98 34 -307 16 -474 -42 -31 -10 -60 -19 -65 -19 -12 0 -10 238
3 323 11 74 41 182 66 230 16 32 18 32 -120 12z"/>
<path d="M2491 4295 c-192 -43 -438 -233 -594 -457 -126 -181 -185 -310 -240
-528 l-32 -125 1 -315 c0 -192 5 -323 11 -334 9 -15 17 -8 58 56 83 126 154
217 320 412 217 256 296 358 343 440 28 50 52 80 86 103 40 27 104 55 113 48
2 -1 -6 -19 -17 -40 -14 -28 -20 -59 -20 -110 0 -97 -11 -128 -78 -216 -31
-42 -77 -103 -101 -135 -25 -33 -88 -108 -141 -169 -311 -354 -464 -594 -541
-845 -31 -100 -32 -112 -32 -275 -1 -154 2 -176 23 -230 57 -148 133 -224 344
-344 81 -46 163 -99 183 -117 33 -32 35 -37 30 -81 -9 -86 -86 -111 -165 -53
-76 55 -75 58 -69 -177 4 -181 8 -219 30 -294 66 -231 193 -389 377 -470 50
-22 68 -24 200 -24 139 1 148 2 225 33 120 47 200 99 271 175 110 116 162 257
149 402 -9 105 -24 211 -42 298 -19 90 -26 94 -100 44 -62 -42 -135 -64 -171
-51 -38 13 -66 72 -54 115 7 28 23 42 102 89 293 177 442 437 442 772 -1 299
-76 483 -361 878 -183 254 -250 356 -301 462 -46 97 -50 109 -55 202 -3 66
-11 108 -22 127 -9 16 -14 32 -9 36 9 9 127 -50 149 -75 9 -9 47 -80 86 -158
85 -169 293 -484 320 -484 43 0 14 678 -39 922 -47 215 -134 362 -256 434
-109 64 -290 90 -423 59z m682 -2059 c40 -96 59 -202 60 -341 1 -145 -17 -226
-74 -342 -70 -141 -86 -137 -101 28 -19 220 -1 452 57 707 9 38 28 20 58 -52z
m-1334 -383 c28 -78 87 -288 95 -340 5 -35 3 -43 -9 -43 -15 0 -100 107 -109
138 -14 47 -26 143 -26 203 0 115 17 129 49 42z"/>
<path d="M4440 4300 c-111 -19 -218 -83 -284 -170 -78 -103 -138 -280 -165
-495 -38 -294 -41 -745 -5 -745 13 0 84 94 187 249 31 46 89 149 129 228 77
155 102 184 187 217 24 9 45 15 47 13 2 -2 -3 -17 -11 -34 -8 -16 -18 -75 -21
-133 -7 -97 -10 -110 -54 -199 -53 -108 -145 -250 -287 -444 -207 -283 -301
-450 -342 -610 -63 -242 -44 -492 51 -682 72 -142 195 -275 337 -362 111 -68
121 -79 121 -130 0 -33 -6 -50 -25 -68 -42 -43 -103 -31 -211 41 -32 21 -59
33 -64 28 -13 -13 -59 -265 -66 -360 -8 -98 13 -204 57 -292 63 -128 210 -250
366 -306 307 -109 587 4 732 296 77 157 95 243 95 470 1 102 -2 190 -7 194 -4
4 -26 -6 -50 -23 -54 -39 -83 -45 -123 -28 -39 16 -54 41 -54 90 0 51 26 74
225 192 230 138 267 176 333 342 24 61 26 78 26 216 0 132 -3 161 -27 245 -82
292 -207 495 -546 883 -122 140 -238 283 -279 345 -34 50 -36 60 -43 163 -5
71 -13 118 -23 133 -21 33 -11 38 38 19 60 -24 112 -68 143 -121 51 -89 101
-158 204 -281 253 -302 398 -486 479 -608 32 -49 35 -51 43 -30 5 12 10 155
10 317 2 321 1 329 -64 556 -105 365 -376 695 -686 836 -115 52 -249 69 -373
48z m-351 -2082 c29 -131 40 -224 47 -400 6 -158 -7 -344 -27 -363 -23 -22
-109 130 -134 237 -19 83 -20 324 -1 415 16 75 69 203 85 203 5 0 19 -42 30
-92z m1310 -412 c3 -119 -35 -236 -98 -303 -41 -45 -53 -42 -45 10 15 104 82
329 110 373 l19 28 6 -29 c4 -17 7 -52 8 -79z"/>
</g>
</svg>
