<?xml version="1.0" standalone="no"?>
<!DOCTYPE svg PUBLIC "-//W3C//DTD SVG 20010904//EN"
 "http://www.w3.org/TR/2001/REC-SVG-20010904/DTD/svg10.dtd">
<svg version="1.0" xmlns="http://www.w3.org/2000/svg"
 width="500.000000pt" height="500.000000pt" viewBox="0 0 500.000000 500.000000"
 preserveAspectRatio="xMidYMid meet">

<g transform="translate(0.000000,500.000000) scale(0.100000,-0.100000)"
fill="#ffff" stroke="none">
<path d="M2325 4929 c-396 -27 -818 -162 -1141 -366 -524 -330 -894 -812
-1075 -1402 -36 -115 -74 -302 -89 -426 -15 -132 -12 -481 5 -615 89 -712 486
-1355 1085 -1759 211 -142 545 -294 648 -295 46 0 56 4 85 32 l32 32 0 258 c0
251 0 257 -20 255 -161 -18 -227 -20 -321 -12 -194 17 -302 59 -399 156 -41
41 -63 75 -96 150 -79 182 -169 309 -254 359 -50 29 -125 106 -125 128 0 32
84 50 163 36 125 -24 237 -108 335 -252 81 -119 148 -185 237 -231 59 -31 63
-32 195 -32 114 0 146 4 205 24 39 12 75 27 81 32 7 5 15 29 18 53 12 81 55
171 115 246 11 14 21 28 21 31 0 4 -26 10 -57 14 -458 54 -780 247 -936 560
-127 255 -170 679 -96 944 35 130 113 275 190 356 l28 30 -20 65 c-50 161 -45
328 14 508 l32 97 58 3 c72 4 149 -16 275 -69 130 -56 197 -90 283 -145 l71
-46 118 26 c333 74 686 74 1019 0 l117 -26 89 55 c238 144 463 227 569 207 25
-4 32 -14 52 -66 63 -168 75 -374 30 -524 l-25 -85 28 -30 c78 -82 155 -227
191 -356 58 -212 44 -540 -35 -789 -92 -287 -270 -479 -564 -606 -94 -41 -268
-86 -400 -104 -50 -7 -91 -15 -91 -17 0 -2 17 -27 39 -56 52 -69 68 -104 93
-195 21 -73 22 -99 22 -507 1 -483 -1 -471 73 -502 47 -19 79 -13 223 44 325
128 588 300 836 547 408 408 652 907 725 1481 15 121 15 466 0 590 -39 310
-146 644 -291 906 -421 758 -1166 1230 -2035 1289 -164 11 -157 11 -330 -1z"/>
</g>
</svg>
