<?xml version="1.0" standalone="no"?>
<!DOCTYPE svg PUBLIC "-//W3C//DTD SVG 20010904//EN"
 "http://www.w3.org/TR/2001/REC-SVG-20010904/DTD/svg10.dtd">
<svg version="1.0" xmlns="http://www.w3.org/2000/svg"
 width="500.000000pt" height="500.000000pt" viewBox="0 0 500.000000 500.000000"
 preserveAspectRatio="xMidYMid meet">

<g transform="translate(0.000000,500.000000) scale(0.100000,-0.100000)"
fill="#ffff" stroke="none">
<path d="M825 4684 c-153 -32 -237 -76 -335 -174 -134 -133 -186 -268 -177
-460 3 -87 9 -118 35 -185 139 -353 559 -492 888 -294 68 41 161 138 201 210
57 101 78 182 77 304 0 79 -5 126 -18 165 -56 169 -163 298 -307 369 -118 58
-267 85 -364 65z m195 -220 c63 -19 141 -67 187 -115 17 -19 47 -65 65 -104
29 -62 33 -80 33 -155 0 -103 -21 -169 -75 -241 -77 -103 -189 -159 -318 -159
-141 0 -257 64 -333 181 -70 109 -79 261 -23 379 85 178 281 268 464 214z"/>
<path d="M3395 3364 c-11 -2 -45 -9 -75 -15 -142 -27 -299 -97 -416 -184 -40
-30 -75 -51 -78 -48 -3 4 -6 46 -6 95 l0 88 -520 0 -520 0 2 -1492 3 -1493
537 -3 537 -2 4 857 c3 790 5 863 21 928 28 103 50 150 101 204 66 70 126 94
251 99 125 5 191 -12 252 -64 53 -45 78 -92 104 -202 21 -84 22 -113 25 -954
l4 -868 535 0 535 0 -4 997 c-4 1086 -2 1056 -62 1299 -74 299 -231 517 -457
634 -174 91 -306 120 -563 125 -104 2 -199 2 -210 -1z m475 -233 c139 -35 260
-100 345 -185 107 -107 165 -215 210 -393 51 -203 55 -288 55 -1195 l0 -838
-324 0 -324 0 -5 767 c-4 729 -5 773 -24 858 -39 170 -80 254 -165 337 -89 86
-208 128 -368 128 -320 0 -520 -163 -593 -482 -20 -89 -21 -123 -24 -851 l-4
-757 -327 2 -327 3 0 1285 0 1285 310 0 310 0 3 -187 2 -188 88 0 87 0 34 58
c52 87 117 159 201 221 91 68 175 107 295 138 82 21 107 23 275 19 146 -3 203
-8 270 -25z"/>
<path d="M373 1808 l2 -1493 538 -3 537 -2 0 1495 0 1495 -540 0 -539 0 2
-1492z m865 -1 l2 -1287 -325 2 -325 3 -1 1275 c0 701 0 1281 0 1288 1 10 69
12 324 10 l322 -3 3 -1288z"/>
</g>
</svg>
