<svg xmlns:xlink="http://www.w3.org/1999/xlink" xmlns="http://www.w3.org/2000/svg" width="177" height="35" viewBox="0 0 177 35" fill="none">
<path d="M175.302 8.68377C175.302 7.96845 174.871 7.66854 174.024 7.66854H172.691V11.1918H173.268V9.68616H173.811L174.719 11.1918H175.372L174.388 9.64293C174.912 9.58484 175.302 9.32006 175.302 8.68377ZM173.268 9.19306V8.16433H173.964C174.31 8.16433 174.727 8.21499 174.727 8.63986C174.727 9.15118 174.346 9.19306 173.912 9.19306H173.268ZM173.896 6.19265C172.216 6.19265 170.774 7.45915 170.774 9.37139C170.774 11.1837 172.072 12.5508 173.896 12.5508C175.557 12.5508 177 11.2863 177 9.37139C177 7.45915 175.557 6.19265 173.896 6.19265ZM173.896 11.9996C172.383 11.9996 171.452 10.8149 171.452 9.37139C171.452 7.82255 172.522 6.74383 173.896 6.74383C175.253 6.74383 176.322 7.82255 176.322 9.37139C176.321 10.929 175.253 11.9996 173.896 11.9996ZM119.571 27.4954C118.36 27.5589 117.795 27.5968 117.474 27.6299C116.803 27.6961 116.412 27.8224 116.248 29.0112C116.059 30.3635 116.151 31.1632 114.895 31.7049C113.659 32.2365 113.241 32.3183 112.635 32.3885C111.549 32.5162 111.268 32.5547 110.237 32.3439C108.83 32.0521 108.28 31.6185 107.538 30.3675C107.354 30.0683 106.897 29.3253 106.471 28.1365C106.398 27.9399 106.267 27.4056 106.285 27.1192C106.439 24.6004 106.78 13.3654 106.798 13.0621C106.858 11.9821 107.014 11.1384 106.177 10.2711C105.306 9.36328 104.294 8.29132 104.133 8.13462C103.344 7.36999 102.568 7.12547 101.202 7.12277C99.5074 7.11601 96.1766 7.01267 95.9131 7.00592C94.7588 6.98025 94.8632 6.95052 93.7979 7.52129C92.7676 8.07044 91.3626 9.137 90.9643 9.36328C90.308 9.73547 90.091 10.213 90.0001 10.8844C89.8727 11.8024 89.5776 12.8399 89.465 13.818C89.3781 14.5785 89.6948 14.8994 90.3208 14.8656C90.5324 14.8535 92.3302 14.7325 93.3585 14.6704C93.9839 14.6353 94.3403 14.4833 94.5708 13.72C94.6254 13.5363 95.1651 12.1273 95.436 11.2735C95.6334 10.6791 95.9603 10.2637 96.4852 10.1921C97.339 10.0752 97.5054 10.0077 98.0451 9.94283C99.0782 9.81854 99.2689 9.93201 99.6044 10.1083C99.8079 10.213 100.467 10.7007 101.096 11.1107C101.515 11.385 101.859 11.6815 101.83 12.5346C101.822 12.7622 101.907 14.7143 101.873 15.0791C101.843 15.4465 102.118 16.4131 101.417 16.326C100.559 16.2226 99.6368 15.6525 97.8976 15.4161C97.6045 15.3749 96.9138 15.2635 96.345 15.4472C95.5189 15.7174 94.0789 16.278 93.9111 16.351C92.5513 16.9312 92.2743 17.094 90.5243 17.9835C89.3734 18.5658 88.8255 19.2608 88.6786 20.5192C88.5136 21.9391 88.3653 25.542 88.3525 25.7696C88.273 27.028 88.8336 28.0385 89.7811 28.7457C91.0776 29.713 92.5257 30.8133 92.8808 31.0666C93.7386 31.6786 95.1267 31.9427 96.2817 31.3382C97.8935 30.4965 101.12 28.8801 101.192 28.8356C101.278 28.7869 101.584 28.5627 101.644 28.7329C101.684 28.8464 101.823 29.2104 101.848 29.3057C101.9 29.4759 102.123 29.6907 102.283 29.8535C103.113 30.6951 103.785 31.4287 104.441 32.1149C105.978 33.7205 106.191 33.8536 108.055 34.2947C110.074 34.7722 110.209 34.804 110.598 34.8722C110.984 34.9397 111.304 35.1836 114.202 34.7405C117.1 34.2933 117.279 34.2271 117.581 34.1744C117.882 34.1244 119.054 34.0225 119.531 32.0791C120.008 30.1385 120.273 29.0517 120.341 28.6424C120.406 28.2364 120.783 27.4333 119.571 27.4954V27.4954ZM101.78 24.1755C101.756 24.9212 101.74 25.3934 101.178 25.6467C100.89 25.7757 99.0809 26.7376 97.965 27.3273C97.4225 27.6137 96.808 27.7508 96.1099 27.4022C95.4582 27.0753 95.2049 26.9956 94.4064 26.5248C93.8626 26.2215 93.5587 25.7305 93.5216 25.1198C93.4744 24.3599 93.3538 22.5132 93.3195 21.8283C93.2864 21.1501 93.469 20.6618 94.2925 20.1504C94.6665 19.9208 96.2412 19.1386 96.7709 18.8853C97.4319 18.5685 98.378 18.532 98.7574 18.6104C99.0802 18.6779 100.623 19.1123 101.149 19.2683C101.627 19.4095 101.791 19.9782 101.78 20.4396C101.755 21.3075 101.788 23.8209 101.78 24.1755ZM40.9048 29.5218C40.2741 28.9707 39.3886 28.2554 39.0072 27.9021C38.8233 27.7332 38.7208 27.5434 38.7458 27.2543C38.9836 24.7227 40.049 13.3087 40.0746 13.0034C40.173 11.9172 39.8799 11.1249 39.0591 10.2502C38.2054 9.34032 37.2512 8.31361 37.0935 8.15487C36.2519 7.3173 35.1016 6.88365 33.8024 6.87757C32.0888 6.87081 29.2061 6.75531 28.9379 6.75058C27.7715 6.7256 27.0168 6.89851 25.9662 7.55439C25.0613 8.11975 23.977 8.81008 23.789 8.94111C23.157 9.3876 22.7944 9.85164 22.6792 10.5251C22.5006 11.5835 22.2089 13.2776 22.1718 13.5282C22.0566 14.2935 22.3692 14.617 23.004 14.5833C23.2176 14.5704 25.0431 14.4509 26.0835 14.3894C26.7189 14.3536 27.0174 14.1773 27.2742 13.4086C27.3348 13.2215 27.8847 11.6403 28.1859 10.7811C28.4069 10.1819 28.6758 10.0138 29.2014 9.92257C29.9116 9.79626 30.8523 9.67603 31.0363 9.65239C31.5834 9.58889 31.9345 9.64494 32.3894 9.9435C32.5821 10.0678 33.7364 10.8777 33.8853 10.9844C34.0861 11.1256 34.4695 11.5322 34.4722 12.1111C34.4722 12.3434 34.5241 15.7072 34.5241 15.7072C34.5241 15.7072 34.5113 16.2753 33.8375 16.0571C32.8806 15.7444 30.4325 14.9088 29.3469 15.1216C28.63 15.2648 27.3921 15.7302 27.0343 15.8856C26.2829 16.2111 25.1684 16.7123 23.9912 17.2926C22.7446 17.9086 22.3315 18.2997 22.1273 18.4827C21.3578 19.1852 21.3241 20.1288 21.2702 21.0015C21.1833 22.4173 20.9717 25.4974 20.9784 25.7244C21.0134 26.7774 21.3571 27.6981 22.2924 28.4094C23.5734 29.3813 25.2904 30.664 25.5639 30.8721C26.4258 31.5381 28.0619 31.5476 28.8153 31.1639C30.477 30.3182 33.9904 28.5019 34.0666 28.4593C34.1535 28.4094 34.2829 28.4195 34.3368 28.5938C34.3732 28.7072 34.3968 28.789 34.4237 28.8855C34.4662 29.0585 34.6211 29.28 34.7957 29.428C35.5787 30.0852 37.2081 31.4847 37.3132 31.5732C37.8752 32.0535 38.425 32.0467 38.9264 31.7738C40.1743 31.097 40.8401 30.6776 40.9432 30.6222C41.5463 30.2851 41.3644 29.9237 40.9048 29.5218ZM33.8786 25.3934C33.5929 25.54 31.5026 26.6126 30.3557 27.2023C29.9062 27.436 29.2876 27.4414 28.8577 27.23C28.5612 27.0821 27.5922 26.5714 27.0478 26.3093C26.5868 26.0864 26.3234 25.6089 26.2338 25.0043C26.1852 24.672 26.0794 22.8145 26.0141 21.706C25.9595 21.2812 26.0956 20.5915 26.5269 20.2416C26.7634 20.0532 27.6711 19.5729 28.1407 19.3034C28.7661 18.9501 29.5167 18.6583 29.946 18.4922C30.5861 18.2429 31.1731 18.3071 32.4386 18.6469C32.7573 18.732 33.7748 18.9988 33.9877 19.1332C34.3604 19.4034 34.4062 19.8336 34.4075 20.145C34.4075 20.3679 34.417 23.2785 34.421 24.3613C34.421 24.8051 34.2748 25.1867 33.8786 25.3934L33.8786 25.3934ZM79.4496 29.5137C78.8189 28.9626 77.9335 28.2459 77.5534 27.896C77.3694 27.7244 77.2636 27.5346 77.2913 27.2455C77.5291 24.7152 78.5945 13.2985 78.6201 12.9953C78.7198 11.9098 78.4254 11.1175 77.6039 10.24C76.7508 9.33289 75.796 8.3055 75.6397 8.14745C74.7987 7.30987 73.6464 6.87487 72.3473 6.8688C70.633 6.86204 67.7482 6.74721 67.4827 6.74248C66.317 6.71545 65.5596 6.88839 64.5097 7.54494C63.6061 8.11368 62.5219 8.80062 62.3339 8.93301C61.7004 9.37882 61.3393 9.84286 61.224 10.5156C61.0448 11.5734 60.7537 13.2675 60.7159 13.5208C60.6014 14.284 60.9134 14.6076 61.5461 14.5738C61.7604 14.5617 63.5845 14.4428 64.629 14.38C65.2631 14.3442 65.5596 14.1685 65.817 13.3992C65.879 13.2141 66.4295 11.6322 66.73 10.7716C66.9517 10.1718 67.2193 10.0036 67.7462 9.91311C68.4558 9.78815 69.3951 9.66724 69.5798 9.64293C70.1283 9.57808 70.4787 9.63617 70.9342 9.93473C71.1262 10.057 72.2812 10.8669 72.4295 10.9736C72.6303 11.1168 73.0157 11.5227 73.0157 12.1016C73.0177 12.3313 73.0696 15.6964 73.0696 15.6964C73.0696 15.6964 73.0555 16.2659 72.3823 16.047C71.4248 15.7356 68.976 14.898 67.8931 15.1122C67.1741 15.2554 65.9362 15.7221 65.5784 15.8754C64.8284 16.201 63.7125 16.7015 62.534 17.2831C61.2907 17.8985 60.8756 18.2882 60.6721 18.4726C59.9026 19.1751 59.8689 20.1187 59.815 20.9914C59.7281 22.4072 59.5165 25.4873 59.5246 25.717C59.5596 26.77 59.9033 27.688 60.8386 28.3992C62.1196 29.3712 63.8359 30.6553 64.1088 30.8633C64.972 31.5293 66.6088 31.5374 67.3608 31.1565C69.0218 30.3081 72.5386 28.4918 72.6107 28.4492C72.7003 28.4006 72.8284 28.4107 72.8836 28.5836C72.9187 28.6971 72.9423 28.7788 72.9685 28.8754C73.013 29.0497 73.1687 29.2699 73.3425 29.4178C74.1269 30.075 75.7522 31.4719 75.8594 31.5631C76.422 32.0447 76.9698 32.0366 77.4705 31.7651C78.7198 31.0882 79.3863 30.6674 79.4907 30.612C80.0898 30.2777 79.9092 29.9163 79.4496 29.5137ZM72.4234 25.3833C72.139 25.5339 70.0481 26.6086 68.8998 27.1962C68.4524 27.4286 67.8325 27.436 67.4046 27.2226C67.1054 27.076 66.1391 26.564 65.5939 26.3019C65.133 26.0804 64.8696 25.6028 64.7806 24.9983C64.7307 24.6646 64.6276 22.8071 64.5609 21.6986C64.5043 21.2751 64.6425 20.5828 65.0744 20.2356C65.3075 20.0485 66.2172 19.5655 66.6869 19.2973C67.3123 18.9414 68.0622 18.6502 68.4928 18.4841C69.1296 18.2342 69.7199 18.3004 70.9827 18.6388C71.3021 18.7266 72.3196 18.9887 72.5366 19.1258C72.9079 19.396 72.9537 19.8262 72.9537 20.1376C72.9537 20.3605 72.9625 23.2711 72.9652 24.3539C72.9671 24.797 72.8203 25.1786 72.4234 25.3833L72.4234 25.3833ZM150.709 29.5218C150.077 28.968 149.19 28.2526 148.813 27.9021C148.629 27.7305 148.523 27.5421 148.548 27.2543C148.787 24.7213 149.852 13.308 149.88 13.0034C149.979 11.9172 149.684 11.1242 148.862 10.2475C148.01 9.3383 147.056 8.31226 146.9 8.15285C146.056 7.31663 144.906 6.88027 143.607 6.87757C141.893 6.86945 139.008 6.75532 138.742 6.74856C137.575 6.72358 136.82 6.89581 135.771 7.55304C134.866 8.1184 133.782 8.80805 133.593 8.93842C132.959 9.38692 132.598 9.84894 132.484 10.5244C132.304 11.5815 132.012 13.2756 131.974 13.5282C131.861 14.2908 132.174 14.615 132.806 14.5812C133.022 14.5691 134.844 14.4482 135.889 14.3867C136.521 14.3516 136.819 14.1746 137.074 13.408C137.138 13.2215 137.686 11.6389 137.988 10.7811C138.212 10.1813 138.479 10.0124 139.006 9.92054C139.715 9.79422 140.651 9.674 140.84 9.65239C141.388 9.58619 141.739 9.64494 142.194 9.94283C142.384 10.0678 143.539 10.875 143.69 10.983C143.89 11.1249 144.276 11.5302 144.278 12.1097C144.278 12.3421 144.327 15.7045 144.327 15.7045C144.327 15.7045 144.315 16.2726 143.642 16.0544C142.686 15.7444 140.236 14.9048 139.153 15.1203C138.434 15.2648 137.194 15.7302 136.838 15.8849C136.089 16.2105 134.971 16.7096 133.794 17.2919C132.548 17.9079 132.134 18.297 131.932 18.48C131.161 19.1825 131.128 20.1282 131.073 20.9988C130.986 22.4146 130.775 25.4961 130.783 25.7244C130.817 26.7774 131.162 27.6967 132.098 28.4066C133.377 29.3813 135.097 30.6613 135.368 30.8707C136.231 31.5367 137.868 31.5476 138.619 31.1625C140.278 30.3169 143.794 28.4992 143.869 28.4593C143.96 28.4066 144.086 28.4168 144.139 28.5924C144.177 28.7059 144.2 28.7876 144.225 28.8842C144.27 29.0571 144.424 29.28 144.601 29.428C145.383 30.0838 147.01 31.4807 147.118 31.5719C147.68 32.0535 148.228 32.0467 148.729 31.7738C149.978 31.097 150.645 30.6762 150.746 30.6195C151.349 30.2851 151.168 29.9224 150.709 29.5218ZM143.682 25.3893C143.398 25.5373 141.305 26.6126 140.158 27.2009C139.711 27.4333 139.089 27.4401 138.66 27.2286C138.365 27.0821 137.395 26.57 136.851 26.3066C136.389 26.0851 136.128 25.6075 136.037 25.003C135.99 24.6706 135.882 22.8145 135.819 21.7047C135.764 21.2798 135.899 20.5888 136.333 20.2416C136.566 20.0532 137.473 19.5702 137.946 19.3034C138.571 18.9488 139.319 18.6577 139.752 18.4895C140.388 18.2402 140.976 18.303 142.242 18.6469C142.562 18.7313 143.576 18.9961 143.793 19.1332C144.165 19.4007 144.21 19.8309 144.213 20.1437C144.213 20.3666 144.222 23.2758 144.223 24.3599C144.225 24.8037 144.078 25.1853 143.682 25.3893L143.682 25.3893ZM58.8939 6.95661C58.406 6.94176 57.3979 6.9566 56.7888 6.98025C56.1843 7.00254 55.6486 7.42741 55.4997 7.93333C54.4748 11.4221 50.807 23.9945 50.654 24.4619C50.4748 25.0084 50.0637 24.9618 49.9694 24.5004C49.8751 24.0411 47.0995 8.39941 47.0011 7.96373C46.8798 7.4335 46.7228 7.03497 45.768 7.0066C44.6271 6.97012 42.898 6.93433 42.3327 6.92419C41.458 6.91337 40.9196 7.1059 41.1292 7.89079C41.3091 8.573 45.4742 25.2516 46.5624 29.6144C46.7268 30.273 47.4229 30.5803 48.088 30.4972C48.6655 30.4249 49.2908 30.3425 49.6143 30.2811C50.3104 30.1554 50.8811 30.2122 51.5482 30.3682C51.7962 30.4263 52.0947 30.4911 52.3676 30.5452C52.8258 30.6391 53.4006 30.1176 53.5718 29.4888C53.7194 28.9491 58.373 12.7366 59.6162 8.39737C59.8521 7.58614 59.5273 6.97891 58.8939 6.95662V6.95661ZM85.7447 14.0132C84.6922 14.0253 83.114 14.0429 82.5372 14.0429C81.6437 14.0429 81.2717 14.2908 81.2811 15.2736C81.2906 16.0862 81.3101 26.5241 81.3182 30.0811C81.3201 30.8187 81.7461 31.2659 82.4044 31.2828C83.0689 31.2997 83.238 31.2922 84.0722 31.3172C84.9058 31.3436 85.2872 30.9032 85.3519 30.1656C85.6693 26.5005 86.6207 15.51 86.6652 15.0169C86.7157 14.4239 86.3316 14.0064 85.7447 14.0132V14.0132ZM16.7891 9.48217C16.0748 8.51288 15.7264 8.47235 14.3309 8.4764C14.0856 8.4764 11.2831 8.51085 10.2251 8.54732C9.16718 8.5865 8.41719 8.83372 7.77029 9.37139C7.36598 9.70575 6.42529 10.8844 6.31478 11.004C6.23527 11.0898 6.07691 11.3735 5.90575 11.339C5.71236 11.2992 5.70832 11.1134 5.73662 10.7845C5.8633 9.28763 6.25481 3.12942 6.36802 1.17936C6.42799 0.516728 6.14228 0 5.39498 0C5.10253 0 2.22924 0.0952374 1.03248 0.0952374C0.381541 0.0952374 -0.00861362 0.555229 0.000144393 1.18949C0.00351535 1.49413 0.333699 26.0263 0.388279 29.9312C0.392979 30.2608 0.581002 30.4391 0.935445 30.4337C1.20835 30.4337 3.2043 30.4114 4.10725 30.402C4.38016 30.402 4.57019 30.1905 4.57019 29.9953C4.57019 29.8319 5.17328 20.1552 5.32961 16.8609C5.37409 15.7093 5.7784 14.2847 6.27435 13.8774C6.7703 13.4721 7.83835 12.642 8.30129 12.3103C8.7622 11.9773 9.10519 11.9665 9.48389 11.9665C10.0075 11.9665 10.8909 11.9875 11.3363 11.9996C11.9259 12.0179 11.9333 12.0692 12.4273 12.415C12.6719 12.5886 13.0243 12.8426 13.3322 13.0783C13.841 13.4647 14.0782 13.7842 14.0694 14.5137C14.0661 14.6657 14.374 26.2816 14.4252 29.1274C14.4252 29.9096 14.5526 30.5046 15.3437 30.5046C15.5492 30.5046 16.7581 30.5168 17.5687 30.5168C18.314 30.5168 18.3659 29.9021 18.4252 29.2186C18.4394 29.0261 19.0269 17.479 19.2938 14.5083C19.3935 13.2607 19.1698 12.6562 18.5782 11.8368C18.4353 11.6362 17.5391 10.4886 16.7891 9.48216V9.48217ZM125.608 8.77226C125.102 8.2231 124.453 8.07788 123.786 8.07788C122.337 8.07788 120.338 8.18527 119.608 8.22918C118.501 8.2947 118.003 8.57164 117.489 9.17212C116.946 9.80571 116.171 10.6372 116.034 10.7608C115.298 11.4262 115.222 11.1553 115.252 10.4048C115.267 9.96377 115.382 8.6885 115.426 8.13596C115.501 7.16127 114.887 6.91878 114.092 6.91203C113.139 6.90394 111.975 6.89581 111.478 6.89581C109.921 6.89581 109.622 6.86543 109.622 8.74726C109.622 10.134 109.688 24.5964 109.695 29.0328C109.695 29.8629 110.222 30.3425 110.788 30.3425C111.355 30.3425 112.742 30.3229 113.16 30.3229C113.582 30.3229 114.057 29.8042 114.115 28.9815C114.355 25.4866 114.954 16.0024 115.008 15.4344C115.073 14.7285 115.391 14.2077 115.811 13.8774C116.561 13.2837 117.575 12.544 117.903 12.2435C118.263 11.9172 118.674 11.8139 119.16 11.8139C119.958 11.8139 120.487 11.8355 121.002 11.8591C121.422 11.8753 121.752 11.9435 122.116 12.1577C122.523 12.3968 123.103 13.1006 123.293 13.2952C123.622 13.6322 123.785 13.7754 123.785 14.4117C123.785 17.5513 124.027 28.202 124.027 28.9538C124.027 29.8508 124.355 30.302 124.832 30.3229C125.499 30.3479 126.412 30.3425 126.73 30.3425C127.281 30.3425 127.603 29.9589 127.68 29.2658C128.057 26.0162 128.917 16.0592 129.033 14.9696C129.226 13.1432 128.905 12.7588 128.025 11.6632C127.079 10.4825 126.269 9.49499 125.608 8.77225V8.77226ZM84.1571 5.77656C82.4172 5.77656 81.0089 7.19032 81.0089 8.93301C81.0089 10.6744 82.4172 12.0868 84.1571 12.0868C85.8923 12.0868 87.304 10.6744 87.304 8.93301C87.304 7.19032 85.8923 5.77656 84.1571 5.77656ZM168.297 18.6664C167.812 17.9383 167.66 17.9721 165.372 17.3655C164.085 17.0224 159.792 15.8525 158.739 15.5566C157.258 15.1365 157.095 14.9028 156.96 13.7437C156.918 13.3668 156.879 12.8027 156.825 12.0786C156.775 11.4039 156.855 11.212 157.444 10.8831C157.823 10.6717 159.128 9.91851 159.678 9.62266C160.36 9.25521 160.904 9.41057 161.73 9.74155C162.152 9.90838 163.495 10.4764 164 10.6865C164.469 10.8831 164.464 11.0324 165.024 12.1435C165.288 12.6636 165.735 12.5731 166.066 12.4258C166.42 12.2712 168.094 11.3795 168.441 11.187C169.103 10.8122 169.236 10.5278 168.993 10.1806C168.654 9.69494 168.588 9.63212 168.34 9.29168C168.067 8.92153 167.863 8.68647 167.35 8.06031C166.766 7.34567 166.836 7.41187 165.612 7.15925C164.754 6.98025 161.298 6.27236 160.263 6.07175C159.677 5.95827 159.363 6.04068 158.772 6.29464C158.179 6.54997 155.805 7.61585 155.173 7.91238C153.694 8.61081 153.436 8.6223 153.252 8.97286C152.988 9.47541 153.096 9.23224 152.421 10.5656C151.63 12.1421 151.413 12.4414 151.57 12.9811C151.846 13.9179 152.413 15.3452 152.882 16.6853C153.362 18.0579 153.39 18.2396 156.167 18.9772C157.768 19.4034 162.619 20.6827 163.206 20.8793C164.161 21.1988 164.273 21.3501 164.677 22.2329C164.856 22.6247 165.099 23.2488 165.233 23.5879C165.459 24.162 165.758 24.7227 165.636 25.4387C165.483 26.3255 164.576 26.5748 164.08 26.8504C163.489 27.18 162.183 27.8345 161.481 28.1527C160.568 28.5667 160.448 28.6856 159.206 28.0804C158.135 27.5616 157.812 27.3617 157.07 26.9801C156.611 26.7464 156.651 26.8072 156.285 26.3931C155.969 26.0398 155.477 25.5366 155.095 25.0685C154.544 24.3944 154.096 24.57 153.472 24.8841C152.966 25.1374 151.144 26.0858 150.681 26.3431C150.247 26.5782 150.25 26.9949 150.524 27.2665C151.039 27.7825 152.212 28.8666 152.62 29.2334C153.42 29.9562 154.045 30.5195 154.758 30.712C156.174 31.0943 158.578 31.7239 160.2 32.1406C162.156 32.6432 161.696 32.5155 163.38 31.8441C163.962 31.6117 167.174 30.3088 167.936 29.9271C168.85 29.4692 168.972 29.3442 169.409 27.8136C169.627 27.0618 170.225 24.9361 170.425 24.2174C170.665 23.3494 170.722 22.6686 170.259 21.8891C170.007 21.4676 168.72 19.3 168.297 18.6664Z" fill="#fff"/>
</svg>